<?xml version="1.0" encoding="iso-8859-1"?>
<!-- Generator: Adobe Illustrator 19.0.0, SVG Export Plug-In . SVG Version: 6.00 Build 0)  -->
<svg version="1.1" id="Layer_1" xmlns="http://www.w3.org/2000/svg" xmlns:xlink="http://www.w3.org/1999/xlink" x="0px" y="0px"
	 viewBox="0 0 512 512" style="enable-background:new 0 0 512 512;" xml:space="preserve" fill="white">
<g>
	<g>
		<path d="M449.513,44.181h-38.339c-11.454-13.069-28.256-21.333-46.994-21.333h-37.031C315.687,8.9,298.306,0,278.85,0H62.487
			C27.985,0,0.002,27.983,0.002,62.485v387.029C0.002,484.017,27.985,512,62.487,512H278.85c18.738,0,35.54-8.265,46.994-21.333
			h38.335c18.738,0,35.54-8.265,46.994-21.333h38.339c34.502,0,62.485-27.983,62.485-62.485V106.667
			C511.998,72.165,484.015,44.181,449.513,44.181z M383.92,429.724c-0.238,2.646-1.081,5.295-2.553,7.961l-1.19,2.154
			c-3.606,4.937-9.422,8.16-15.997,8.16h-22.844V65.515h22.844c6.576,0,12.391,3.223,15.997,8.16l1.19,2.154
			c1.473,2.666,2.315,5.315,2.553,7.961c0.04,0.511,0.078,1.022,0.078,1.543v342.848
			C383.998,428.702,383.959,429.213,383.92,429.724z M213.335,42.671v183.163l-27.582-27.582c-8.331-8.331-21.839-8.331-30.17,0
			l-27.582,27.582V42.671H213.335z M42.669,449.515V62.485c0-10.938,8.881-19.819,19.819-19.819h22.848v234.671
			c0,19.006,22.979,28.524,36.418,15.085l48.915-48.915l48.915,48.915c13.439,13.439,36.418,3.921,36.418-15.085V42.667h22.848
			c6.832,0,12.861,3.465,16.425,8.732l1.162,2.323c1.247,2.493,1.956,4.923,2.16,7.33c0.029,0.399,0.056,0.799,0.061,1.205
			c0.001,0.076,0.007,0.152,0.007,0.229v387.029c0,0.089-0.008,0.178-0.009,0.267c-0.005,0.402-0.031,0.799-0.06,1.195
			c-0.228,2.673-1.074,5.349-2.562,8.042l-1.202,2.177c-3.607,4.924-9.415,8.138-15.981,8.138H62.487
			C51.55,469.333,42.669,460.453,42.669,449.515z M469.331,406.848c0,10.938-8.881,19.819-19.819,19.819h-22.848V86.848h22.848
			c10.938,0,19.819,8.881,19.819,19.819V406.848z"/>
	</g>
</g>
<g>
</g>
<g>
</g>
<g>
</g>
<g>
</g>
<g>
</g>
<g>
</g>
<g>
</g>
<g>
</g>
<g>
</g>
<g>
</g>
<g>
</g>
<g>
</g>
<g>
</g>
<g>
</g>
<g>
</g>
</svg>
