<svg xmlns="http://www.w3.org/2000/svg" viewBox="0 0 500 500"><g id="freepik--Floor--inject-3"><path d="M415.63,241.85c-92.07-53.16-240.87-53.15-332.34,0s-91,139.35,1.07,192.5,240.88,53.17,332.36,0S507.71,295,415.63,241.85Z" style="fill:#f5f5f5"></path><path d="M416.61,320.84c12.1-7.18,23.52-14,34-20.32-10.89,6-22.71,12.62-35.19,19.63-13.19-7.75-26.93-15.78-40.91-23.91,23.66-13.93,45.77-27.08,65.16-38.76-20.08,11.11-42.87,23.88-67.13,37.62-13.55-7.87-27.3-15.82-40.95-23.67,17-10.07,33-19.6,47.43-28.28-14.94,8.26-31.46,17.5-49,27.38-14.1-8.1-28.08-16.1-41.6-23.79,11.24-6.67,21.89-13,31.73-19h0c-10.22,5.65-21.25,11.8-32.86,18.32-14.8-8.41-29-16.44-42.28-23.86,7.12-4.24,13.93-8.31,20.34-12.17-6.67,3.69-13.73,7.62-21.11,11.74-7.37-4.12-14.44-8.05-21.11-11.74,6.42,3.86,13.22,7.93,20.34,12.17-13.24,7.42-27.48,15.45-42.27,23.86-11.62-6.52-22.64-12.67-32.86-18.32,9.84,5.93,20.48,12.29,31.73,19-13.53,7.69-27.5,15.69-41.6,23.79-17.54-9.88-34.06-19.12-49-27.38,14.41,8.68,30.4,18.21,47.44,28.28-13.65,7.85-27.4,15.8-40.95,23.67-24.27-13.74-47.06-26.51-67.14-37.62,19.39,11.68,41.51,24.83,65.17,38.76-14,8.13-27.73,16.16-40.92,23.91-12.47-7-24.29-13.61-35.19-19.63,10.5,6.32,21.93,13.14,34,20.32-14.65,8.61-28.59,16.87-41.35,24.5-4.65-2.59-9.16-5.1-13.48-7.49l13,7.79L17.6,353.12l13-7.19C43.31,353.54,57.28,361.8,72,370.42c-11.88,7.05-23.12,13.76-33.46,20h0C49.24,384.47,60.86,378,73.12,371.1c13.32,7.81,27.19,15.9,41.23,24-15.17,9-29.45,17.5-42.44,25.33,13.48-7.45,28.24-15.7,43.88-24.5,13.76,8,27.66,16,41.35,23.84-14.53,8.61-28.23,16.79-40.8,24.36,13-7.21,27.23-15.13,42.21-23.55,14.35,8.22,28.43,16.23,41.83,23.81-9.77,5.8-19.06,11.36-27.71,16.57,9-5,18.62-10.34,28.72-16,15.26,8.62,29.62,16.67,42.4,23.73-12.33-7.42-26.24-15.7-41.09-24.46,13.16-7.39,27.13-15.28,41.57-23.49,14.44,8.21,28.41,16.1,41.58,23.49-14.85,8.76-28.77,17-41.1,24.46,12.78-7.06,27.14-15.11,42.4-23.73,10.1,5.66,19.73,11,28.72,16-8.65-5.21-17.94-10.77-27.7-16.57,13.39-7.58,27.47-15.59,41.82-23.81C345,429,359.16,437,372.2,444.17c-12.56-7.57-26.27-15.75-40.8-24.36C345.09,412,359,404,372.76,396c15.63,8.8,30.39,17,43.87,24.5-13-7.83-27.27-16.34-42.44-25.33,14.05-8.14,27.91-16.23,41.23-24,12.26,6.89,23.89,13.37,34.62,19.31h0c-10.34-6.23-21.58-12.94-33.46-20,14.68-8.62,28.65-16.88,41.4-24.49l13,7.19-12.48-7.48c4.49-2.68,8.83-5.29,13-7.79L458,345.34C445.2,337.71,431.26,329.45,416.61,320.84Zm-2.81.23c-13.16,7.4-27,15.25-41.3,23.38-13.11-7.68-26.6-15.54-40.23-23.45,13.71-8,27.16-15.88,40.17-23.53C386.52,305.55,400.42,313.48,413.8,321.07ZM247,321c13.51-7.83,26.91-15.63,40-23.28,13.36,7.74,26.84,15.53,40.24,23.24-13.28,7.6-26.77,15.34-40.28,23.13C273.66,336.35,260.28,328.62,247,321Zm37.28,24.63c-13.36,7.7-26.74,15.45-40,23.13-13.23-7.68-26.61-15.43-40-23.13,13.3-7.65,26.68-15.37,40-23.07C257.56,330.21,270.94,337.93,284.24,345.58Zm-40-26.17c-13.59-7.82-27.1-15.56-40.34-23.11,13.68-7.94,27.21-15.82,40.34-23.52,13.14,7.7,26.66,15.58,40.34,23.52C271.37,303.85,257.86,311.59,244.27,319.41ZM241.58,321c-13.31,7.67-26.69,15.4-40,23.09-13.52-7.79-27-15.53-40.29-23.13,13.4-7.71,26.89-15.5,40.24-23.24C214.68,305.32,228.07,313.12,241.58,321Zm-42.8,24.74c-13.51,7.84-26.88,15.63-39.92,23.26-13.75-7.91-27.41-15.73-40.73-23.32,13.26-7.55,26.87-15.33,40.58-23.21C171.89,330.11,185.3,337.9,198.78,345.69Zm2.65,1.54c13.37,7.73,26.79,15.45,40.08,23.09C228,378.19,214.6,386,201.58,393.62c-13.4-7.77-27-15.6-40.42-23.35C174.35,362.75,187.84,355,201.43,347.23Zm42.84,24.67c13.66,7.83,27.18,15.56,40.38,23.07-13.72,8-27.26,15.86-40.38,23.56-13.12-7.7-26.66-15.6-40.38-23.56C217.09,387.46,230.61,379.73,244.27,371.9Zm2.76-1.58c13.3-7.64,26.71-15.36,40.08-23.09,13.59,7.81,27.08,15.52,40.27,23-13.47,7.75-27,15.58-40.41,23.35C273.94,386,260.57,378.19,247,370.32Zm42.74-24.63c13.47-7.79,26.88-15.58,40.07-23.27,13.71,7.88,27.31,15.66,40.57,23.21-13.32,7.59-27,15.41-40.73,23.32C316.64,361.32,303.27,353.53,289.77,345.69Zm80.64-49.38c-13.22,7.49-26.86,15.25-40.74,23.19C316.3,311.74,302.8,304,289.4,296.24c13.78-8.06,27.21-15.95,40.07-23.55C343.08,280.58,356.82,288.51,370.41,296.31Zm-42.55-24.55c-13.12,7.41-26.8,15.16-40.8,23.14-13.78-7.92-27.45-15.73-40.76-23.31,14-8.22,27.61-16.22,40.42-23.82C300.05,255.59,313.88,263.65,327.86,271.76ZM244.27,222.7c12.89,7.68,26.79,15.88,41.29,24.39-13.13,7.38-27,15.22-41.29,23.35-14.29-8.13-28.15-16-41.28-23.35C217.49,238.58,231.39,230.38,244.27,222.7Zm-42.44,25.07c12.81,7.6,26.37,15.6,40.41,23.82-13.31,7.58-27,15.39-40.76,23.31-14-8-27.67-15.73-40.8-23.14C174.67,263.65,188.49,255.59,201.83,247.77Zm-42.76,24.92c12.86,7.6,26.29,15.49,40.08,23.55-13.41,7.71-26.9,15.5-40.28,23.26-13.88-7.94-27.52-15.7-40.74-23.19C131.72,288.51,145.47,280.58,159.07,272.69Zm-43,24.78c13,7.65,26.45,15.53,40.16,23.53-13.63,7.91-27.12,15.77-40.23,23.45-14.27-8.13-28.14-16-41.3-23.38C88.12,313.48,102,305.55,116.11,297.47Zm-85,48.16c13.14-7.33,27.44-15.37,42.41-23.86C86.37,329.39,100,337.4,114,345.63c-14.06,8.24-27.67,16.26-40.53,23.88C58.52,361,44.21,352.94,31.1,345.63Zm43.61,24.58c13.16-7.4,27-15.26,41.34-23.39,13.17,7.71,26.72,15.6,40.41,23.54-13.85,8.11-27.31,16-40.15,23.63C102.19,385.87,88.2,377.87,74.71,370.21Zm43.08,24.63c13.13-7.39,26.84-15.16,40.92-23.18,13.46,7.8,27,15.63,40.48,23.36-13.87,8.13-27.33,16.07-40.17,23.67C145.42,410.78,131.56,402.76,117.79,394.84Zm83.88,48.82c-13.15-7.75-27-15.87-41.2-24.12,13.15-7.4,26.89-15.17,41-23.2,13.84,7.94,27.53,15.77,40.84,23.33C228.15,428,214.5,436,201.67,443.66Zm85.21,0c-12.83-7.62-26.49-15.68-40.65-24,13.3-7.56,27-15.39,40.83-23.33,14.13,8,27.87,15.8,41,23.2C313.88,427.79,300,435.91,286.88,443.66Zm42.64-25c-12.83-7.6-26.3-15.54-40.17-23.67,13.46-7.73,27-15.56,40.48-23.36,14.08,8,27.8,15.79,40.92,23.18C357,402.76,343.12,410.78,329.52,418.69ZM372.24,394c-12.84-7.6-26.3-15.52-40.15-23.63,13.68-7.94,27.23-15.83,40.41-23.54,14.29,8.13,28.17,16,41.33,23.39C400.35,377.87,386.36,385.87,372.24,394Zm42.81-24.48c-12.86-7.62-26.47-15.64-40.53-23.88,14.05-8.23,27.65-16.24,40.52-23.86,15,8.49,29.26,16.53,42.41,23.86C444.34,352.94,430,361,415.05,369.51Z" style="fill:#ebebeb"></path></g><g id="freepik--Shadows--inject-3"><path d="M297.82,214.93c9.66,5.57,9.71,14.6.12,20.18s-25.19,5.57-34.84,0-9.7-14.61-.11-20.18S288.17,209.35,297.82,214.93Z" style="fill:#e0e0e0"></path><polygon points="53.17 314.83 137.52 363.53 278.12 282.35 193.76 233.68 53.17 314.83" style="fill:#e0e0e0"></polygon><path d="M347.14,323.66l-39.53-22.83L236.55,341.9l39.5,22.8,6.18-3.56,1.91,1.12h0a3,3,0,0,0,3.31-.17,9.82,9.82,0,0,0,4.28-6.45l41.77-24.11,1.2.7h0a3,3,0,0,0,3.32-.17,9.76,9.76,0,0,0,4.05-5.47Z" style="fill:#e0e0e0"></path><path d="M423.6,357.12c-18.14-10.48-47.45-10.48-65.47,0-1.05.61-2,1.25-3,1.9l-33.53-18.3-14.18,7.95,38.14,22c-2.95,8.52,1.3,17.73,12.75,24.34,18.14,10.47,47.45,10.47,65.47,0S441.74,367.59,423.6,357.12Z" style="fill:#e0e0e0"></path><path d="M51.88,391.05c17.17,9.92,44.93,9.92,62,0,8.53-5,12.77-11.46,12.74-18s-4.36-13-13-17.95c-17.17-9.92-44.93-9.92-62,0-8.54,5-12.78,11.46-12.75,17.95S43.29,386.09,51.88,391.05Z" style="fill:#e0e0e0"></path><polygon points="322.01 443.6 291.92 461.09 290.13 461.57 257.44 442.7 288.33 424.23 322.01 443.6" style="fill:#e0e0e0"></polygon></g><g id="freepik--Pictures--inject-3"><polygon points="101.72 79.99 67.63 99.67 67.7 125.73 101.8 106.05 101.72 79.99" style="fill:none"></polygon><polygon points="101.72 79.99 101.8 106.05 104.95 107.88 104.87 78.17 101.72 79.99" style="fill:#f0f0f0"></polygon><polygon points="67.7 125.73 67.71 129.38 104.95 107.88 101.8 106.05 67.7 125.73" style="fill:#f5f5f5"></polygon><path d="M108.67,71.59,63.8,97.5,63.91,136l44.87-25.91Zm-41,57.79v-3.65l-.07-26.06L101.72,80l3.15-1.82.08,29.71Z" style="fill:#e0e0e0"></path><polygon points="108.67 71.59 105.52 69.75 60.64 95.66 63.8 97.5 108.67 71.59" style="fill:#f5f5f5"></polygon><polygon points="60.64 95.66 60.75 134.13 63.91 135.97 63.8 97.5 60.64 95.66" style="fill:#f0f0f0"></polygon><polygon points="101.7 138.47 67.61 158.15 67.68 184.21 101.77 164.52 101.7 138.47" style="fill:none"></polygon><polygon points="101.7 138.47 101.77 164.52 104.93 166.36 104.85 136.65 101.7 138.47" style="fill:#f0f0f0"></polygon><polygon points="67.68 184.21 67.69 187.86 104.93 166.36 101.77 164.52 67.68 184.21" style="fill:#f5f5f5"></polygon><path d="M108.65,130.07,63.78,156l.11,38.48,44.87-25.91Zm-41,57.79v-3.65l-.07-26.06,34.09-19.68,3.15-1.82.08,29.71Z" style="fill:#e0e0e0"></path><polygon points="108.65 130.07 105.49 128.23 60.62 154.14 63.78 155.97 108.65 130.07" style="fill:#f5f5f5"></polygon><polygon points="60.62 154.14 60.73 192.61 63.89 194.45 63.78 155.97 60.62 154.14" style="fill:#f0f0f0"></polygon><path d="M154.4,96.06h0l1.23-.6h0Z" style="fill:none"></path><path d="M154,96.27h0l.45-.21h0Z" style="fill:none"></path><polygon points="168.31 45.29 158.98 50.67 149.51 56.14 158.98 50.67 168.31 45.29" style="fill:none"></polygon><polygon points="168.39 76.02 168.37 67.37 168.35 59.47 168.37 67.37 168.39 76.02" style="fill:none"></polygon><path d="M155.63,95.46l.25-.13-.25.13Z" style="fill:none"></path><polygon points="168.5 113.94 168.48 106.71 168.46 100.38 168.48 106.71 168.5 113.94" style="fill:none"></polygon><path d="M150.33,97.76c1.2-.43,2.41-.93,3.62-1.49h0C152.74,96.83,151.53,97.33,150.33,97.76Z" style="fill:none"></path><polygon points="140.62 71.98 140.7 99.77 140.74 115.87 140.7 99.77 140.62 71.98" style="fill:none"></polygon><path d="M168.48,106.71l0-6.33-.29.16-.52.31c-4.68,2.83-9.37,7.26-13.74,12.06-.72.79-1.44,1.59-2.14,2.4-3.68,4.22-7.29,8.68-11,12.86l0,10.23,4.46-2.58A98,98,0,0,1,168.48,106.71Z" style="fill:#ebebeb"></path><path d="M168.53,122.4l0-8.46a53.35,53.35,0,0,0-9.48,14Z" style="fill:#ebebeb"></path><path d="M159,127.89a53.35,53.35,0,0,1,9.48-14l0-7.23a98,98,0,0,0-23.21,29.11L159,127.89Z" style="fill:#fafafa"></path><path d="M154,96.27h0" style="fill:none;stroke:gray;stroke-linecap:round;stroke-linejoin:round;stroke-width:0px"></path><path d="M154.4,96.06h0" style="fill:none;stroke:gray;stroke-linecap:round;stroke-linejoin:round;stroke-width:0px"></path><path d="M149.69,98l.64-.23c1.2-.43,2.41-.93,3.62-1.49l.45-.21,1.23-.6c.7-.36,1.41-.74,2.11-1.14-.7.4-1.41.78-2.11,1.14l.25-.13c.62-.32,1.24-.66,1.86-1,.14-.07.27-.15.4-.23l.33-.18A68.63,68.63,0,0,0,168,87.07l.41-.36,0-10.69c-6.78,3.47-13.46,4.55-18.84,2.87A16.51,16.51,0,0,1,140.62,72l.08,27.78A33.11,33.11,0,0,0,149.69,98Z" style="fill:#fafafa"></path><path d="M153.91,112.91c4.37-4.8,9.06-9.23,13.74-12.06l.52-.31.29-.16V94.25a133,133,0,0,0-25,19c-.9.86-1.8,1.74-2.71,2.59l0,12.3c3.7-4.18,7.31-8.64,11-12.86C152.47,114.5,153.19,113.7,153.91,112.91Z" style="fill:#fafafa"></path><path d="M168.45,94.25l0-7.54-.41.36a68.63,68.63,0,0,1-9.54,6.84l-.33.18c-.13.08-.26.16-.4.23-.62.35-1.24.69-1.86,1l-.25.13a.91.91,0,0,0-.17.09h0a.91.91,0,0,1,.17-.09l-1.23.6-.45.21c-1.21.56-2.42,1.06-3.62,1.49l.69-.25-.69.25-.64.23a33.11,33.11,0,0,1-9,1.77l0,16.11c.91-.85,1.81-1.73,2.71-2.59A133,133,0,0,1,168.45,94.25Z" style="fill:#ebebeb"></path><path d="M168.37,67.37l0-7.9c-4.29-1-7.62-4.13-9.37-8.8l-9.47,5.47A19.55,19.55,0,0,0,168.37,67.37Z" style="fill:#fafafa"></path><path d="M149.55,78.89c5.38,1.68,12.06.6,18.84-2.87l0-8.65a19.55,19.55,0,0,1-18.86-11.23l-8.92,5.15,0,10.69A16.51,16.51,0,0,0,149.55,78.89Z" style="fill:#ebebeb"></path><path d="M169.86,42.6,139,60.41l.23,80.68,30.84-17.81Zm-29.05,95.8,0-10.23,0-12.3,0-16.11L140.62,72l0-10.69,8.92-5.15L159,50.67l9.33-5.38,0,14.18,0,7.9,0,8.65,0,10.69,0,7.54v6.13l0,6.33,0,7.23,0,8.46L159,127.89h0l-13.75,7.93Z" style="fill:#fff"></path><path d="M155.43,95.56h0" style="fill:none;stroke:gray;stroke-linecap:round;stroke-linejoin:round;stroke-width:0px"></path><path d="M155.46,95.55a.91.91,0,0,1,.17-.09" style="fill:none;stroke:gray;stroke-linecap:round;stroke-linejoin:round;stroke-width:0px"></path><path d="M157.74,94.32c-.7.4-1.41.78-2.11,1.14" style="fill:none;stroke:gray;stroke-linecap:round;stroke-linejoin:round;stroke-width:0px"></path><line x1="155.63" y1="95.46" x2="155.63" y2="95.46" style="fill:none;stroke:gray;stroke-linecap:round;stroke-linejoin:round;stroke-width:0px"></line><path d="M150.33,97.76l.69-.25" style="fill:none;stroke:gray;stroke-linecap:round;stroke-linejoin:round;stroke-width:0px"></path><path d="M168.35,59.47l0-14.18L159,50.67C160.73,55.34,164.06,58.46,168.35,59.47Z" style="fill:#ebebeb"></path><polygon points="170.09 123.28 139.25 141.09 139.25 143.24 171.94 124.36 170.09 123.28" style="fill:#cacaca"></polygon><polygon points="169.86 42.6 170.09 123.28 171.94 124.36 171.71 41.53 169.86 42.6" style="fill:#f0f0f0"></polygon><path d="M176.67,32.94,134,57.56l.26,94.27,42.65-24.62Zm-37.42,110.3v-2.15L139,60.41,169.86,42.6l1.85-1.07.23,82.83Z" style="fill:#e0e0e0"></path><polygon points="176.67 32.94 173.15 31.05 130.51 55.67 134.03 57.56 176.67 32.94" style="fill:#f5f5f5"></polygon><polygon points="130.51 55.67 130.78 149.94 134.29 151.83 134.03 57.56 130.51 55.67" style="fill:#f0f0f0"></polygon><polygon points="90.89 89.88 100.19 97.2 100.21 104.35 69.28 122.21 69.26 115.06 75.16 103.35 80.45 107.46 78.58 113.27 81.29 108.11 90.89 89.88" style="fill:#e0e0e0"></polygon><path d="M80.73,93.49c1.46-.84,2.64-.17,2.65,1.5a5.81,5.81,0,0,1-2.63,4.55c-1.46.84-2.64.17-2.64-1.5A5.77,5.77,0,0,1,80.73,93.49Z" style="fill:#e0e0e0"></path><polygon points="90.87 148.36 100.17 155.68 100.19 162.83 69.26 180.69 69.24 173.53 75.13 161.83 80.42 165.94 78.56 171.75 81.27 166.59 90.87 148.36" style="fill:#e0e0e0"></polygon><path d="M80.71,152c1.45-.84,2.64-.16,2.64,1.51A5.79,5.79,0,0,1,80.73,158c-1.46.84-2.64.17-2.65-1.51A5.8,5.8,0,0,1,80.71,152Z" style="fill:#e0e0e0"></path></g><g id="freepik--table-2--inject-3"><path d="M282.68,148.2h-4.44c0,19.1.7,82,.7,82h0a.76.76,0,0,0,.45.63,2.35,2.35,0,0,0,2.16,0,.77.77,0,0,0,.44-.63h0S282.68,167.3,282.68,148.2Z" style="fill:#e6e6e6"></path><path d="M273.72,139.59h-4.44c-3.82,19.75-6.3,81.95-6.3,81.95h0a.78.78,0,0,0,.45.63,2.35,2.35,0,0,0,2.16,0,.76.76,0,0,0,.45-.63h0S270.25,159.07,273.72,139.59Z" style="fill:#e6e6e6"></path><path d="M287.2,139.59h4.44c3.82,19.75,6.3,81.95,6.3,81.95h0a.76.76,0,0,1-.45.63,2.35,2.35,0,0,1-2.16,0,.75.75,0,0,1-.44-.63h0S290.68,159.07,287.2,139.59Z" style="fill:#e6e6e6"></path><path d="M304.35,139h-.47c-.9-2.6-3.09-5.08-6.58-7.09-9.36-5.41-24.49-5.41-33.79,0-3.46,2-5.63,4.49-6.5,7.09h-.44v2.69h0c0,3.55,2.37,7.09,7.05,9.79,9.36,5.41,24.49,5.4,33.79,0,4.65-2.7,7-6.24,6.94-9.79h0Z" style="fill:#f0f0f0"></path><path d="M297.3,129.24c9.36,5.4,9.41,14.16.11,19.57s-24.43,5.4-33.79,0-9.41-14.17-.11-19.57S287.94,123.83,297.3,129.24Z" style="fill:#f5f5f5"></path><path d="M292.19,121.24H268.74c0,7.71,3.6,14.24,4.7,16.18l.15.26.05.09h0a4.93,4.93,0,0,0,1.67,1.49,11.38,11.38,0,0,0,10.32,0,4.39,4.39,0,0,0,1.89-1.93C288.69,135.3,292.19,128.85,292.19,121.24Z" style="fill:#ebebeb"></path><path d="M288.72,116.44c4.6,2.65,4.62,7,.06,9.61s-12,2.65-16.58,0-4.62-7-.05-9.61S284.13,113.79,288.72,116.44Z" style="fill:#f5f5f5"></path><path d="M279.19,118.22a33.62,33.62,0,0,0-3.38-14.48,12.41,12.41,0,0,1-1.6-4.41c-.11-1.57.76-3.35,2.3-3.66a3.29,3.29,0,0,1,3.16,1.51,9.37,9.37,0,0,1,1.24,3.47c1.17,5.42,2.13,11,1.4,16.5a6.91,6.91,0,0,1-.38,1.86,1.74,1.74,0,0,1-1.34,1.07,1.3,1.3,0,0,1-1.06-.42A2.79,2.79,0,0,1,279.19,118.22Z" style="fill:#e0e0e0"></path><path d="M280.48,118.66h0a.19.19,0,0,1-.18-.21,42,42,0,0,0-3.48-20.55.2.2,0,0,1,.09-.26.2.2,0,0,1,.26.1,42.35,42.35,0,0,1,3.51,20.75A.19.19,0,0,1,280.48,118.66Z" style="fill:#fff"></path><path d="M267.78,110.05c-1-.64-2.21-1.33-2.52-2.51a2.65,2.65,0,0,1,1.19-2.79,4,4,0,0,1,3.13-.43,8.64,8.64,0,0,1,2.89,1.45,19.6,19.6,0,0,1,4,3.8,20.24,20.24,0,0,1,3.18,5.73,22.24,22.24,0,0,1,1.14,4.12c.18,1.11.51,3-.64,3.68a1.65,1.65,0,0,1-1.69,0,2.83,2.83,0,0,1-1.14-1.32,13.72,13.72,0,0,1-.61-1.66,15.61,15.61,0,0,0-3.57-5.85A25.73,25.73,0,0,0,267.78,110.05Z" style="fill:#ebebeb"></path><path d="M279.61,121.76h0a.22.22,0,0,1-.27-.18A23,23,0,0,0,267.23,106a.24.24,0,0,1-.1-.32.23.23,0,0,1,.31-.1,23.44,23.44,0,0,1,12.36,15.86A.25.25,0,0,1,279.61,121.76Z" style="fill:#fff"></path><path d="M290.73,107.66c.84-.88,1.8-1.85,1.8-3.06a2.66,2.66,0,0,0-1.86-2.41,4,4,0,0,0-3.13.39,8.39,8.39,0,0,0-2.43,2.13,19.28,19.28,0,0,0-2.88,4.68,20.51,20.51,0,0,0-1.63,6.34,22.66,22.66,0,0,0-.06,4.28c.11,1.12.26,3,1.56,3.4a1.67,1.67,0,0,0,1.62-.45,3,3,0,0,0,.78-1.57,14.76,14.76,0,0,0,.16-1.76,15.78,15.78,0,0,1,2-6.57A26.26,26.26,0,0,1,290.73,107.66Z" style="fill:#ebebeb"></path><path d="M282.25,122h0a.24.24,0,0,0,.22-.25,23,23,0,0,1,7.77-18.1.24.24,0,0,0,0-.33.23.23,0,0,0-.33,0A23.4,23.4,0,0,0,282,121.76.25.25,0,0,0,282.25,122Z" style="fill:#fff"></path></g><g id="freepik--Sofa--inject-3"><path d="M209,143.45a8.12,8.12,0,0,0-4-5.76l-9.57-5.5a4,4,0,0,0-4.26.14h0L59.09,210.93a3.85,3.85,0,0,0-1.29.77h0a4,4,0,0,0-1.38,3v89.63a8.11,8.11,0,0,0,4.07,7l15.66,9,133-79V144.73A9.08,9.08,0,0,0,209,143.45Z" style="fill:#455a64"></path><polygon points="57.8 211.7 57.8 211.7 57.8 211.7 57.8 211.7" style="fill:#fff;opacity:0.2"></polygon><path d="M72.08,216.71l-9.58-5.49a4,4,0,0,0-3.41-.29,3.85,3.85,0,0,0-1.29.77h0a4,4,0,0,0-1.38,3v89.63a8.11,8.11,0,0,0,4.07,7l15.66,9V223.76A8.13,8.13,0,0,0,72.08,216.71Z" style="opacity:0.2"></path><path d="M75.49,220.55a8.12,8.12,0,0,1,.66,3.21V320.4l133-79V144.73a9.08,9.08,0,0,0-.11-1.28Z" style="opacity:0.1"></path><path d="M271.16,214.22a8.15,8.15,0,0,0-2.7-2.55l-55.61-31.92a4,4,0,0,0-4,0h0l-.16.09-14.35,8.38a4,4,0,0,0-2.21,3.6v54.88a8.14,8.14,0,0,0,4.08,7.05l55.61,31.92a4,4,0,0,0,4.25-.14h0l14.26-8.32.33-.2h0a4,4,0,0,0,1.82-3.39V218.71A8.11,8.11,0,0,0,271.16,214.22Zm-14.7,8.4Z" style="fill:#455a64"></path><path d="M257.92,282.12V227.24a8.14,8.14,0,0,0-4.08-7.05l-55.61-31.92a4.07,4.07,0,0,0-6.08,3.52v54.88a8.14,8.14,0,0,0,4.08,7.05l55.61,31.92a4.07,4.07,0,0,0,6.08-3.52Z" style="opacity:0.2"></path><path d="M256.46,222.62a8,8,0,0,1,1.46,4.62v54.88a4,4,0,0,1-1.83,3.38h0l14.26-8.32.33-.2h0a4,4,0,0,0,1.82-3.39V218.71a8.11,8.11,0,0,0-1.37-4.49Z" style="opacity:0.1"></path><path d="M254.54,249l-103.1,59.52a6.33,6.33,0,0,1-5.75,0L121.3,294.35,92,311.29c-1.59.91-1.61,2.4,0,3.32l53.75,31.23a6.33,6.33,0,0,0,5.75,0l103.1-59.52a2,2,0,0,0,1.19-1.68h0v-37.3A2,2,0,0,1,254.54,249Z" style="fill:#455a64"></path><path d="M254.54,249l-103.1,59.52a6.33,6.33,0,0,1-5.75,0L121.3,294.35,92,311.29c-1.59.91-1.61,2.4,0,3.32l53.75,31.23a6.33,6.33,0,0,0,5.75,0l103.1-59.52a2,2,0,0,0,1.19-1.68h0v-37.3A2,2,0,0,1,254.54,249Z" style="opacity:0.1"></path><path d="M254.55,245.67,200.8,214.44a6.29,6.29,0,0,0-5.73,0L92,274c-1.59.92-1.61,2.41,0,3.33l29.36,17.06,24.39,14.17a6.33,6.33,0,0,0,5.75,0L254.54,249a2,2,0,0,0,1.19-1.66c0-.05,0-.09,0-.14A2.09,2.09,0,0,0,254.55,245.67Z" style="fill:#455a64"></path><g style="opacity:0.30000000000000004"><path d="M92,274c-1.59.92-1.61,2.41,0,3.33l53.75,31.23a6.33,6.33,0,0,0,5.75,0L254.54,249c1.58-.92,1.59-2.41,0-3.33L200.8,214.44a6.29,6.29,0,0,0-5.73,0Z"></path></g><path d="M155.16,283.84a8.08,8.08,0,0,0-2.71-2.55l-55.6-31.92a4,4,0,0,0-4,0h0l-.16.1-14.35,8.38a4,4,0,0,0-2.21,3.6v54.88a8.11,8.11,0,0,0,4.08,7l55.61,31.93a4,4,0,0,0,4.25-.14h0l14.26-8.32a2.07,2.07,0,0,0,.32-.19l0,0h0a4,4,0,0,0,1.83-3.38V288.33A8.11,8.11,0,0,0,155.16,283.84Zm-14.7,8.39Z" style="fill:#455a64"></path><path d="M141.92,351.74V296.85a8.14,8.14,0,0,0-4.08-7L82.23,257.89a4.07,4.07,0,0,0-6.08,3.52v54.88a8.11,8.11,0,0,0,4.08,7l55.61,31.93a4.07,4.07,0,0,0,6.08-3.52Z" style="opacity:0.2"></path><path d="M140.46,292.23a8.17,8.17,0,0,1,1.46,4.62v54.89a4,4,0,0,1-1.83,3.38h0l14.26-8.32a2.07,2.07,0,0,0,.32-.19l0,0h0a4,4,0,0,0,1.83-3.38V288.33a8.11,8.11,0,0,0-1.37-4.49Z" style="opacity:0.05"></path></g><g id="freepik--table-1--inject-3"><path d="M80.1,336.71c.27,28.88.57,56.7.57,56.7a1.06,1.06,0,0,0,.62.86,3.33,3.33,0,0,0,3,0,1,1,0,0,0,.61-.86s.31-27.81.57-56.69C83.67,336.78,81.88,336.78,80.1,336.71Z" style="fill:#3298DC"></path><path d="M45,372.57a1.06,1.06,0,0,0,.62.86,3.24,3.24,0,0,0,3,0,1.06,1.06,0,0,0,.62-.86s1.34-19.87,3.26-43.49a31.69,31.69,0,0,1-5-3.83C45.88,350.53,45,372.57,45,372.57Z" style="fill:#3298DC"></path><path d="M116.35,372.57a1,1,0,0,0,.61.86,3.24,3.24,0,0,0,3,0,1.06,1.06,0,0,0,.62-.86s-.87-22-2.42-47.19a31.63,31.63,0,0,1-5,3.81C115,352.76,116.35,372.57,116.35,372.57Z" style="fill:#3298DC"></path><path d="M80.1,336.71c.27,28.88.57,56.7.57,56.7a1.06,1.06,0,0,0,.62.86,3.33,3.33,0,0,0,3,0,1,1,0,0,0,.61-.86s.31-27.81.57-56.69C83.67,336.78,81.88,336.78,80.1,336.71Z" style="opacity:0.30000000000000004"></path><path d="M45,372.57a1.06,1.06,0,0,0,.62.86,3.24,3.24,0,0,0,3,0,1.06,1.06,0,0,0,.62-.86s1.34-19.87,3.26-43.49a31.69,31.69,0,0,1-5-3.83C45.88,350.53,45,372.57,45,372.57Z" style="opacity:0.30000000000000004"></path><path d="M116.35,372.57a1,1,0,0,0,.61.86,3.24,3.24,0,0,0,3,0,1.06,1.06,0,0,0,.62-.86s-.87-22-2.42-47.19a31.63,31.63,0,0,1-5,3.81C115,352.76,116.35,372.57,116.35,372.57Z" style="opacity:0.30000000000000004"></path><path d="M80.1,336.71c.27,28.88.57,56.7.57,56.7a1.06,1.06,0,0,0,.62.86,3.33,3.33,0,0,0,3,0,1,1,0,0,0,.61-.86s.31-27.81.57-56.69C83.67,336.78,81.88,336.78,80.1,336.71Z" style="fill:#fff;opacity:0.2"></path><path d="M45,372.57a1.06,1.06,0,0,0,.62.86,3.24,3.24,0,0,0,3,0,1.06,1.06,0,0,0,.62-.86s1.34-19.87,3.26-43.49a31.69,31.69,0,0,1-5-3.83C45.88,350.53,45,372.57,45,372.57Z" style="fill:#fff;opacity:0.2"></path><path d="M116.35,372.57a1,1,0,0,0,.61.86,3.24,3.24,0,0,0,3,0,1.06,1.06,0,0,0,.62-.86s-.87-22-2.42-47.19a31.63,31.63,0,0,1-5,3.81C115,352.76,116.35,372.57,116.35,372.57Z" style="fill:#fff;opacity:0.2"></path><path d="M124.26,308.07c0,6.15-4,12.3-12.05,17-16.15,9.38-42.42,9.38-58.67,0-8.13-4.69-12.22-10.84-12.25-17h0v4.67c0,4.34,2.08,8.68,6.14,12.51a31.69,31.69,0,0,0,5,3.83c.35.22.7.44,1.07.65,7.41,4.28,16.9,6.6,26.56,7,1.78.07,3.57.07,5.35,0,9.76-.35,19.33-2.67,26.76-7l.88-.54a31.63,31.63,0,0,0,5-3.81c4.11-3.86,6.16-8.25,6.13-12.64h0v-4.67Z" style="fill:#3298DC"></path><path d="M124.26,308.07c0,6.15-4,12.3-12.05,17-16.15,9.38-42.42,9.38-58.67,0-8.13-4.69-12.22-10.84-12.25-17h0v4.67c0,4.34,2.08,8.68,6.14,12.51a31.69,31.69,0,0,0,5,3.83c.35.22.7.44,1.07.65,7.41,4.28,16.9,6.6,26.56,7,1.78.07,3.57.07,5.35,0,9.76-.35,19.33-2.67,26.76-7l.88-.54a31.63,31.63,0,0,0,5-3.81c4.11-3.86,6.16-8.25,6.13-12.64h0v-4.67Z" style="opacity:0.2"></path><path d="M53.54,325.06c16.25,9.38,42.52,9.38,58.67,0,8.07-4.69,12.09-10.84,12.05-17s-4.12-12.3-12.24-17c-16.26-9.38-42.53-9.38-58.67,0-8.08,4.7-12.09,10.85-12.06,17S45.41,320.37,53.54,325.06Z" style="fill:#3298DC"></path><path d="M53.54,325.06c16.25,9.38,42.52,9.38,58.67,0,8.07-4.69,12.09-10.84,12.05-17s-4.12-12.3-12.24-17c-16.26-9.38-42.53-9.38-58.67,0-8.08,4.7-12.09,10.85-12.06,17S45.41,320.37,53.54,325.06Z" style="opacity:0.2"></path><path d="M124.26,308.07c0,6.15-4,12.3-12.05,17-16.15,9.38-42.42,9.38-58.67,0-8.13-4.69-12.22-10.84-12.25-17h0v4.67c0,4.34,2.08,8.68,6.14,12.51a31.69,31.69,0,0,0,5,3.83c.35.22.7.44,1.07.65,7.41,4.28,16.9,6.6,26.56,7,1.78.07,3.57.07,5.35,0,9.76-.35,19.33-2.67,26.76-7l.88-.54a31.63,31.63,0,0,0,5-3.81c4.11-3.86,6.16-8.25,6.13-12.64h0v-4.67Z" style="fill:#fff;opacity:0.2"></path><path d="M53.54,325.06c16.25,9.38,42.52,9.38,58.67,0,8.07-4.69,12.09-10.84,12.05-17s-4.12-12.3-12.24-17c-16.26-9.38-42.53-9.38-58.67,0-8.08,4.7-12.09,10.85-12.06,17S45.41,320.37,53.54,325.06Z" style="fill:#fff;opacity:0.30000000000000004"></path><g style="opacity:0.30000000000000004"><path d="M80.1,336.71c0,1.93,0,3.86.05,5.77,1.75.07,3.5.07,5.25,0,0-1.91,0-3.84,0-5.77C83.67,336.78,81.88,336.78,80.1,336.71Z"></path><path d="M47.43,325.25c-.11,1.85-.22,3.67-.33,5.47A31,31,0,0,0,52,334.58c.15-1.8.3-3.64.45-5.5A31.69,31.69,0,0,1,47.43,325.25Z"></path><path d="M118.13,325.38a31.63,31.63,0,0,1-5,3.81c.16,1.86.3,3.69.45,5.5a30,30,0,0,0,4.92-3.85Q118.29,328.14,118.13,325.38Z"></path></g><path d="M74.59,302a16.25,16.25,0,0,1,14.72,0c4,2.36,4,6.18,0,8.53a16.19,16.19,0,0,1-14.72,0C70.49,308.13,70.51,304.31,74.59,302Z" style="opacity:0.05"></path><path d="M71.05,287.14l11.19.32,11.19-.32c.48,7.55-1,15.25-3,19h0a5.06,5.06,0,0,1-2.21,2.26,13.18,13.18,0,0,1-11.92,0,4.94,4.94,0,0,1-2.21-2.31C72,302.31,70.57,294.66,71.05,287.14Z" style="fill:#fff"></path><path d="M74.35,282.56c-4.38,2.53-4.4,6.63,0,9.16s11.44,2.53,15.83,0,4.4-6.63.05-9.16S78.74,280,74.35,282.56Z" style="fill:#ebebeb"></path><path d="M76.09,283.56c-3.42,2-3.44,5.18,0,7.15a13.56,13.56,0,0,0,12.34,0c3.42-2,3.44-5.17,0-7.15A13.62,13.62,0,0,0,76.09,283.56Z" style="fill:#e0e0e0"></path><g style="opacity:0.15"><path d="M76.09,283.56c-3.42,2-3.44,5.18,0,7.15a13.56,13.56,0,0,0,12.34,0c3.42-2,3.44-5.17,0-7.15A13.62,13.62,0,0,0,76.09,283.56Z"></path></g><path d="M83.17,287.45a7.39,7.39,0,0,1-6.56,1.5A6.9,6.9,0,0,1,72,284.3a13.26,13.26,0,0,0,3.59-2.5,9.26,9.26,0,0,0-5.08.18,5.19,5.19,0,0,1-.39-4.85,9,9,0,0,1,6.07-.42,8.05,8.05,0,0,0-6.13-1.93,23.39,23.39,0,0,1,1.47-9.42c4.17.22,8.22,2,9.58,3.31a15.37,15.37,0,0,1-.46,4.43,3.62,3.62,0,0,0,1.94-2.87c2.61.65,3.72,2,4.13,2.95a10.91,10.91,0,0,1-2.47,5,6.07,6.07,0,0,0,3.45-3.47C90.12,280.43,89.66,286.9,83.17,287.45Z" style="fill:#3298DC"></path><path d="M83.17,287.45a7.39,7.39,0,0,1-6.56,1.5A6.9,6.9,0,0,1,72,284.3a13.26,13.26,0,0,0,3.59-2.5,9.26,9.26,0,0,0-5.08.18,5.19,5.19,0,0,1-.39-4.85,9,9,0,0,1,6.07-.42,8.05,8.05,0,0,0-6.13-1.93,23.39,23.39,0,0,1,1.47-9.42c4.17.22,8.22,2,9.58,3.31a15.37,15.37,0,0,1-.46,4.43,3.62,3.62,0,0,0,1.94-2.87c2.61.65,3.72,2,4.13,2.95a10.91,10.91,0,0,1-2.47,5,6.07,6.07,0,0,0,3.45-3.47C90.12,280.43,89.66,286.9,83.17,287.45Z" style="opacity:0.2"></path><path d="M83.17,287.45a7.39,7.39,0,0,1-6.56,1.5A6.9,6.9,0,0,1,72,284.3a13.26,13.26,0,0,0,3.59-2.5,9.26,9.26,0,0,0-5.08.18,5.19,5.19,0,0,1-.39-4.85,9,9,0,0,1,6.07-.42,8.05,8.05,0,0,0-6.13-1.93,23.39,23.39,0,0,1,1.47-9.42c4.17.22,8.22,2,9.58,3.31a15.37,15.37,0,0,1-.46,4.43,3.62,3.62,0,0,0,1.94-2.87c2.61.65,3.72,2,4.13,2.95a10.91,10.91,0,0,1-2.47,5,6.07,6.07,0,0,0,3.45-3.47C90.12,280.43,89.66,286.9,83.17,287.45Z" style="fill:#fff;opacity:0.30000000000000004"></path><path d="M83.32,288.07h0a.24.24,0,0,0,.22-.26c-.4-5.26-3.41-14-10.6-21.13a.23.23,0,0,0-.34,0,.25.25,0,0,0,0,.34c7.09,7.08,10.07,15.64,10.46,20.83A.23.23,0,0,0,83.32,288.07Z" style="fill:#f5f5f5"></path><path d="M81.35,290.27a6.85,6.85,0,0,0,10.71-2.81,11.71,11.71,0,0,1-3.24-2.21,9.2,9.2,0,0,1,4.8.14,4.45,4.45,0,0,0,.68-4.32,8.8,8.8,0,0,0-5.73-.34A8.43,8.43,0,0,1,94.51,279a19.11,19.11,0,0,0-.8-8.42c-4,.24-7.91,1.89-9.28,3.06a12.6,12.6,0,0,0,.16,3.93A2.86,2.86,0,0,1,83,275c-2.5.6-3.62,1.77-4.06,2.65a8.62,8.62,0,0,0,2,4.42,4.94,4.94,0,0,1-3-3.05C75.29,284.09,75.33,289.79,81.35,290.27Z" style="fill:#3298DC"></path><path d="M81.35,290.27a6.85,6.85,0,0,0,10.71-2.81,11.71,11.71,0,0,1-3.24-2.21,9.2,9.2,0,0,1,4.8.14,4.45,4.45,0,0,0,.68-4.32,8.8,8.8,0,0,0-5.73-.34A8.43,8.43,0,0,1,94.51,279a19.11,19.11,0,0,0-.8-8.42c-4,.24-7.91,1.89-9.28,3.06a12.6,12.6,0,0,0,.16,3.93A2.86,2.86,0,0,1,83,275c-2.5.6-3.62,1.77-4.06,2.65a8.62,8.62,0,0,0,2,4.42,4.94,4.94,0,0,1-3-3.05C75.29,284.09,75.33,289.79,81.35,290.27Z" style="fill:#fff;opacity:0.30000000000000004"></path><path d="M81.19,290.85a.25.25,0,0,0,.24-.21c.68-4.58,4-12.2,11.15-18.56a.24.24,0,0,0-.32-.36C85,278.17,81.65,285.9,81,290.57a.25.25,0,0,0,.2.28Z" style="fill:#fff"></path></g><g id="freepik--mopping-trolley--inject-3"><polygon points="236.55 330.65 276.05 353.45 347.14 312.41 307.61 289.58 236.55 330.65" style="fill:#455a64"></polygon><polygon points="236.55 330.65 236.55 334.67 276.05 357.47 276.05 353.45 236.55 330.65" style="fill:#455a64"></polygon><polygon points="276.05 353.45 347.14 312.41 347.14 316.43 276.05 357.47 276.05 353.45" style="fill:#455a64"></polygon><polygon points="236.55 330.65 276.05 353.45 347.14 312.41 307.61 289.58 236.55 330.65" style="fill:#fff;opacity:0.2"></polygon><polygon points="236.55 330.65 236.55 334.67 276.05 357.47 276.05 353.45 236.55 330.65" style="fill:#fff;opacity:0.1"></polygon><path d="M285.3,357.12a9.66,9.66,0,0,1,4.38-7.59,3.17,3.17,0,0,1,3.06-.34h0L289,347h0a3.07,3.07,0,0,0-3.17.28,9.64,9.64,0,0,0-4.38,7.59,3.13,3.13,0,0,0,1.21,2.77h0l.05,0,.06,0,3.6,2.11h0A3.25,3.25,0,0,1,285.3,357.12Z" style="fill:#455a64"></path><path d="M285.3,357.12a9.66,9.66,0,0,1,4.38-7.59,3.17,3.17,0,0,1,3.06-.34h0L289,347h0a3.07,3.07,0,0,0-3.17.28,9.64,9.64,0,0,0-4.38,7.59,3.13,3.13,0,0,0,1.21,2.77h0l.05,0,.06,0,3.6,2.11h0A3.25,3.25,0,0,1,285.3,357.12Z" style="opacity:0.30000000000000004"></path><path d="M292.74,349.19a3.17,3.17,0,0,0-3.06.34,9.66,9.66,0,0,0-4.38,7.59,3.25,3.25,0,0,0,1.09,2.69,3,3,0,0,0,3.32-.17,9.66,9.66,0,0,0,4.38-7.59A3,3,0,0,0,292.74,349.19Zm-3.95,8.86a2.13,2.13,0,0,1-1.05.35c-.52,0-.6-.8-.6-1.28a7.87,7.87,0,0,1,3.46-6,2.16,2.16,0,0,1,1-.35c.53,0,.61.8.61,1.28A7.91,7.91,0,0,1,288.79,358.05Z" style="fill:#455a64"></path><path d="M291.65,350.77a2.16,2.16,0,0,0-1,.35,7.87,7.87,0,0,0-3.46,6c0,.48.08,1.28.6,1.28a2.13,2.13,0,0,0,1.05-.35,7.91,7.91,0,0,0,3.47-6C292.26,351.57,292.18,350.77,291.65,350.77Z" style="fill:#455a64"></path><path d="M291.65,350.77l-.28,0a3,3,0,0,1,.09.77,7.87,7.87,0,0,1-3.46,6,2.67,2.67,0,0,1-.77.32c.08.29.23.52.51.52a2.13,2.13,0,0,0,1.05-.35,7.91,7.91,0,0,0,3.47-6C292.26,351.57,292.18,350.77,291.65,350.77Z" style="fill:#fff;opacity:0.2"></path><path d="M291.46,351.57a3,3,0,0,0-.09-.77,3.42,3.42,0,0,0-.77.32,7.87,7.87,0,0,0-3.46,6,3,3,0,0,0,.09.76,2.67,2.67,0,0,0,.77-.32A7.87,7.87,0,0,0,291.46,351.57Z" style="fill:#fff;opacity:0.2"></path><path d="M291.46,351.57a3,3,0,0,0-.09-.77,3.42,3.42,0,0,0-.77.32,7.87,7.87,0,0,0-3.46,6,3,3,0,0,0,.09.76,2.67,2.67,0,0,0,.77-.32A7.87,7.87,0,0,0,291.46,351.57Z" style="fill:#fff;opacity:0.2"></path><path d="M335.3,328.26a9.68,9.68,0,0,1,4.39-7.59,3.15,3.15,0,0,1,3.05-.34h0l-3.72-2.2h0a3.07,3.07,0,0,0-3.17.28,9.62,9.62,0,0,0-4.38,7.58,3.14,3.14,0,0,0,1.21,2.78h0l.05,0,.07,0,3.59,2.12h0A3.19,3.19,0,0,1,335.3,328.26Z" style="fill:#455a64"></path><path d="M335.3,328.26a9.68,9.68,0,0,1,4.39-7.59,3.15,3.15,0,0,1,3.05-.34h0l-3.72-2.2h0a3.07,3.07,0,0,0-3.17.28,9.62,9.62,0,0,0-4.38,7.58,3.14,3.14,0,0,0,1.21,2.78h0l.05,0,.07,0,3.59,2.12h0A3.19,3.19,0,0,1,335.3,328.26Z" style="opacity:0.30000000000000004"></path><path d="M342.74,320.33a3.15,3.15,0,0,0-3.05.34,9.68,9.68,0,0,0-4.39,7.59,3.19,3.19,0,0,0,1.1,2.68,2.94,2.94,0,0,0,3.31-.17,9.64,9.64,0,0,0,4.38-7.59A3,3,0,0,0,342.74,320.33Zm-3.94,8.85a2.21,2.21,0,0,1-1.06.36c-.52,0-.6-.81-.6-1.29a7.87,7.87,0,0,1,3.46-6,2.21,2.21,0,0,1,1.06-.36c.52,0,.6.81.6,1.29A7.87,7.87,0,0,1,338.8,329.18Z" style="fill:#455a64"></path><path d="M341.66,321.9a2.21,2.21,0,0,0-1.06.36,7.87,7.87,0,0,0-3.46,6c0,.48.08,1.29.6,1.29a2.21,2.21,0,0,0,1.06-.36,7.87,7.87,0,0,0,3.46-6C342.26,322.71,342.18,321.9,341.66,321.9Z" style="fill:#455a64"></path><path d="M341.66,321.9a1.3,1.3,0,0,0-.29,0,3.53,3.53,0,0,1,.1.76,7.91,7.91,0,0,1-3.47,6,2.57,2.57,0,0,1-.77.32c.08.29.23.52.51.52a2.21,2.21,0,0,0,1.06-.36,7.87,7.87,0,0,0,3.46-6C342.26,322.71,342.18,321.9,341.66,321.9Z" style="fill:#fff;opacity:0.2"></path><path d="M341.47,322.7a3.53,3.53,0,0,0-.1-.76,2.67,2.67,0,0,0-.77.32,7.87,7.87,0,0,0-3.46,6,3,3,0,0,0,.09.77,2.57,2.57,0,0,0,.77-.32A7.91,7.91,0,0,0,341.47,322.7Z" style="fill:#fff;opacity:0.2"></path><path d="M341.47,322.7a3.53,3.53,0,0,0-.1-.76,2.67,2.67,0,0,0-.77.32,7.87,7.87,0,0,0-3.46,6,3,3,0,0,0,.09.77,2.57,2.57,0,0,0,.77-.32A7.91,7.91,0,0,0,341.47,322.7Z" style="fill:#fff;opacity:0.2"></path><path d="M355.92,246l-35.47-20.86a1.76,1.76,0,0,0-1.8,0l-6.77,4.09a14.12,14.12,0,0,0-6.77,12v51.1h0a.85.85,0,0,0,.52.74,2.71,2.71,0,0,0,2.48,0,.82.82,0,0,0,.5-.74h0v-51.1a10.56,10.56,0,0,1,5.08-9l5.88-3.56,31.95,18.79-4,2.32A14.06,14.06,0,0,0,340.41,262v50.46h0a.85.85,0,0,0,.51.71,2.69,2.69,0,0,0,2.47,0,.82.82,0,0,0,.5-.71h0V262a10.55,10.55,0,0,1,5.31-9.15l6.68-3.81a1.75,1.75,0,0,0,.88-1.51A1.78,1.78,0,0,0,355.92,246Z" style="fill:#455a64"></path><path d="M355.92,246l-35.47-20.86a1.76,1.76,0,0,0-1.8,0l-6.77,4.09a14.12,14.12,0,0,0-6.77,12v51.1h0a.85.85,0,0,0,.52.74,2.71,2.71,0,0,0,2.48,0,.82.82,0,0,0,.5-.74h0v-51.1a10.56,10.56,0,0,1,5.08-9l5.88-3.56,31.95,18.79-4,2.32A14.06,14.06,0,0,0,340.41,262v50.46h0a.85.85,0,0,0,.51.71,2.69,2.69,0,0,0,2.47,0,.82.82,0,0,0,.5-.71h0V262a10.55,10.55,0,0,1,5.31-9.15l6.68-3.81a1.75,1.75,0,0,0,.88-1.51A1.78,1.78,0,0,0,355.92,246Z" style="fill:#fff;opacity:0.1"></path><polygon points="302.75 285.08 305.89 331.67 331 317.05 334.55 266.6 302.75 285.08" style="fill:#3298DC"></polygon><polygon points="261.68 261.37 264.83 307.96 305.89 331.67 302.75 285.08 261.68 261.37" style="fill:#3298DC"></polygon><polygon points="302.75 285.08 305.89 331.67 331 317.05 334.55 266.6 302.75 285.08" style="fill:#fff;opacity:0.30000000000000004"></polygon><polygon points="261.68 261.37 264.83 307.96 305.89 331.67 302.75 285.08 261.68 261.37" style="fill:#fff;opacity:0.5"></polygon><polygon points="338.24 259.68 293.02 233.57 257.99 253.92 303.22 280.04 338.24 259.68" style="fill:#455a64"></polygon><polygon points="293.02 236.03 262.23 253.92 290.54 270.26 293.02 236.03 293.02 236.03" style="fill:#263238"></polygon><polygon points="334 259.69 293.02 236.03 290.54 270.26 303.21 277.58 334 259.69" style="fill:#37474f"></polygon><polygon points="303.22 280.04 303.2 285.81 338.23 265.45 338.24 259.68 303.22 280.04" style="fill:#455a64"></polygon><polygon points="257.99 253.92 257.98 259.7 303.2 285.81 303.22 280.04 257.99 253.92" style="fill:#455a64"></polygon><polygon points="303.22 280.04 303.2 285.81 338.23 265.45 338.24 259.68 303.22 280.04" style="fill:#fff;opacity:0.2"></polygon><polygon points="257.99 253.92 257.98 259.7 303.2 285.81 303.22 280.04 257.99 253.92" style="fill:#fff;opacity:0.1"></polygon><polygon points="273.29 314.11 275.63 348.84 296.99 336.53 296.99 300.33 273.29 314.11" style="fill:#3298DC"></polygon><polygon points="242.67 296.44 245.01 331.17 275.63 348.84 273.29 314.11 242.67 296.44" style="fill:#3298DC"></polygon><polygon points="273.29 314.11 275.63 348.84 296.99 336.53 296.99 300.33 273.29 314.11" style="fill:#fff;opacity:0.30000000000000004"></polygon><polygon points="242.67 296.44 245.01 331.17 275.63 348.84 273.29 314.11 242.67 296.44" style="fill:#fff;opacity:0.5"></polygon><polygon points="299.74 295.18 266.03 275.71 239.92 290.89 273.63 310.35 299.74 295.18" style="fill:#455a64"></polygon><polygon points="273.63 310.35 273.62 314.66 299.73 299.48 299.74 295.18 273.63 310.35" style="fill:#455a64"></polygon><polygon points="239.92 290.89 239.91 295.19 273.62 314.66 273.63 310.35 239.92 290.89" style="fill:#455a64"></polygon><polygon points="273.63 310.35 273.62 314.66 299.73 299.48 299.74 295.18 273.63 310.35" style="fill:#fff;opacity:0.2"></polygon><polygon points="239.92 290.89 239.91 295.19 273.62 314.66 273.63 310.35 239.92 290.89" style="fill:#fff;opacity:0.1"></polygon><polygon points="243.08 290.85 265.92 304.03 266.03 277.51 243.08 290.85" style="fill:#263238"></polygon><polygon points="296.58 295.15 266.03 277.51 266.03 277.51 265.92 304.03 273.63 308.48 296.58 295.15" style="fill:#37474f"></polygon></g><g id="freepik--Character--inject-3"><path d="M354.46,195.06l-6.06,1.73-6.79-23a10.68,10.68,0,0,1-.22-5.44l.68-3.11a8.53,8.53,0,0,0,.18-2.47c-.09-1.25-.22-2.54-.28-3.76a1.8,1.8,0,0,0-.28-1.1,1.1,1.1,0,0,0-1.23-.25,1.8,1.8,0,0,0-.91.93,5.52,5.52,0,0,0-.36,1.28l-.39,2a2.6,2.6,0,0,1-.25.82.91.91,0,0,1-.66.49c-.65.06-4.61-10.13-4.32-13.77.07-1-2.74-1.76-2.8,2.34a2.58,2.58,0,0,0-1.74,1.49c-.5.89-1,1.78-1.48,2.67a11.07,11.07,0,0,0-1.2,2.73,9.07,9.07,0,0,0,.29,4.41,18.36,18.36,0,0,0,3.83,7,10.74,10.74,0,0,1,2.46,5.49l4.19,27.12A8.9,8.9,0,0,0,348,210.19l8.22-1.9Z" style="fill:#db7e7c"></path><path d="M341.86,179.72a4.42,4.42,0,0,0,1.84-2l-1.25-4.26a9.82,9.82,0,0,1-.21-5l.69-3.11a9.56,9.56,0,0,0,.2-2.72c0-.41-.07-.82-.1-1.23-.07-.84-.14-1.69-.18-2.51a2.61,2.61,0,0,0-.49-1.62,1.89,1.89,0,0,0-1.46-.65,2.18,2.18,0,0,0-.76.14,2.67,2.67,0,0,0-1.38,1.37,6.11,6.11,0,0,0-.43,1.5l-.39,2.06c-1.21-2.43-3.71-9.52-3.5-12.25a1.48,1.48,0,0,0-.4-1.12,2.05,2.05,0,0,0-1.47-.61c-.41,0-2.37.17-2.65,3.35a4,4,0,0,0-1.68,1.75l-1.45,2.63a11.61,11.61,0,0,0-1.29,3,10,10,0,0,0,.29,4.85,19.2,19.2,0,0,0,4,7.38,10,10,0,0,1,2.27,5.07l.74,4.83A10.49,10.49,0,0,0,341.86,179.72Z" style="fill:#3298DC"></path><path d="M341.86,179.72a4.42,4.42,0,0,0,1.84-2l-1.25-4.26a9.82,9.82,0,0,1-.21-5l.69-3.11a9.56,9.56,0,0,0,.2-2.72c0-.41-.07-.82-.1-1.23-.07-.84-.14-1.69-.18-2.51a2.61,2.61,0,0,0-.49-1.62,1.89,1.89,0,0,0-1.46-.65,2.18,2.18,0,0,0-.76.14,2.67,2.67,0,0,0-1.38,1.37,6.11,6.11,0,0,0-.43,1.5l-.39,2.06c-1.21-2.43-3.71-9.52-3.5-12.25a1.48,1.48,0,0,0-.4-1.12,2.05,2.05,0,0,0-1.47-.61c-.41,0-2.37.17-2.65,3.35a4,4,0,0,0-1.68,1.75l-1.45,2.63a11.61,11.61,0,0,0-1.29,3,10,10,0,0,0,.29,4.85,19.2,19.2,0,0,0,4,7.38,10,10,0,0,1,2.27,5.07l.74,4.83A10.49,10.49,0,0,0,341.86,179.72Z" style="fill:#fff;opacity:0.4"></path><path d="M382.32,189.18c-6.15-1.51-11.36,0-16.63,1.65s-12.43,4-12.43,4a15.16,15.16,0,0,0,2.37,14.36l21-3.2Z" style="fill:#3298DC"></path><path d="M418.79,253.74s-23.76,8.7-43.06-2.14c0,0,1.17-13.83,1.52-21.88s-2.43-23.62-2.85-27.79.14-11.4,5.06-12.49c9.12-1.93,26.26,0,26.26,0L416,200.75C420.25,222.84,419.52,246,418.79,253.74Z" style="fill:#3298DC"></path><path d="M375.41,171.55a8.75,8.75,0,0,1-.92-11.76,4.74,4.74,0,0,1-2-2.45,2.54,2.54,0,0,1,3.72-2.93,3.57,3.57,0,0,1,1.95-3.95,3.34,3.34,0,0,1,4.05,1.31,2.3,2.3,0,0,1,1.84-2,4.65,4.65,0,0,1,2.86.56c.88.44,1.69,1,2.59,1.43a21.88,21.88,0,0,0,4.83,1.27,10,10,0,0,1,4.57,1.88c1.27,1.08,2.22,3.34,1.24,5.05a2.77,2.77,0,0,1,2.11-.79,2.67,2.67,0,0,1,1.9,1.12c-1.11.51-2.2,1.07-3.32,1.57a2.81,2.81,0,0,1,3,1.67,6.31,6.31,0,0,1,.12,3.4A44.82,44.82,0,0,1,400,179.33c-1,2-2.3,4.15-4.44,4.87Z" style="fill:#e0e0e0"></path><path d="M386.27,183.75l.46,5.12a2,2,0,0,1-.29,1.13,2.89,2.89,0,0,0,.45,3.35,3.92,3.92,0,0,0,2.29.77,11.06,11.06,0,0,0,8.46-3.26,2.48,2.48,0,0,0,.67-1.75l-.34-13Z" style="fill:#db7e7c"></path><path d="M396.94,176.79l-10.67,7,.41,4.54a16.9,16.9,0,0,0,6.94-2.89A9.53,9.53,0,0,0,396.94,176.79Z" style="fill:#c96562"></path><path d="M376.19,161A45.8,45.8,0,0,0,375,178.76a14.09,14.09,0,0,0,.93,3.8,5.89,5.89,0,0,0,2.52,2.91,9.21,9.21,0,0,0,4.73.63c2.93-.13,6-.28,8.64-1.47s5-3.65,5.17-6.59a5,5,0,0,0,4.73.88,5.11,5.11,0,0,0,3.15-3.7c.32-1.61-.38-3.55-1.94-4.08a3.54,3.54,0,0,0-2.89.45,10.63,10.63,0,0,0-2.23,2,3.55,3.55,0,0,1-1.1.91,1.19,1.19,0,0,1-1.33-.19,1.77,1.77,0,0,1-.19-1.5l.64-3.67a1.48,1.48,0,0,0-.63-1.48,3.63,3.63,0,0,1-1.41-2.11,7.57,7.57,0,0,1-.17-2.28.92.92,0,0,0-1.15-.93A27.42,27.42,0,0,1,376.19,161Z" style="fill:#db7e7c"></path><polygon points="383.13 171 379.09 176.15 382.94 177.41 383.13 171" style="fill:#c96562"></polygon><path d="M386.5,179.82l-3.19,1.07a2,2,0,0,0,2.19,1A1.8,1.8,0,0,0,386.5,179.82Z" style="fill:#c96562"></path><path d="M386.5,179.82l-3.19,1.07a2,2,0,0,0,2.19,1A1.8,1.8,0,0,0,386.5,179.82Z" style="opacity:0.30000000000000004"></path><path d="M384.45,181.8a1.89,1.89,0,0,0,1.05,0,1.63,1.63,0,0,0,1-1.48,1.86,1.86,0,0,0-1.24.26A1.88,1.88,0,0,0,384.45,181.8Z" style="fill:#c96562"></path><path d="M388.82,171a1.15,1.15,0,1,1-1.11-1.17A1.15,1.15,0,0,1,388.82,171Z" style="fill:#263238"></path><path d="M379.79,169.76a1.15,1.15,0,0,1-2.29-.06,1.15,1.15,0,0,1,2.29.06Z" style="fill:#263238"></path><path d="M380.13,166.38l-3,.8a1.64,1.64,0,0,1,1.07-1.52A1.91,1.91,0,0,1,380.13,166.38Z" style="fill:#e0e0e0"></path><path d="M387,167.43l2.75,1.39a1.64,1.64,0,0,0-.74-1.71A1.91,1.91,0,0,0,387,167.43Z" style="fill:#e0e0e0"></path><path d="M420,383a7,7,0,0,1-5.92,1,6.66,6.66,0,0,1-4.07-3.93,13.19,13.19,0,0,1-.82-4,13.07,13.07,0,0,0,.64,5.45,7.3,7.3,0,0,0,2.34,3.49c2.12,1.34,6.37,1.24,8.46-.13,1.83-1.2,1.82-3.79,2.18-5.72A7.65,7.65,0,0,1,420,383Z" style="fill:#fff"></path><path d="M409.36,377.71a10.79,10.79,0,0,0,.62,2.34,6.66,6.66,0,0,0,4.07,3.93,7,7,0,0,0,5.92-1,5.64,5.64,0,0,0,2.92-4.61,6.34,6.34,0,0,0,0-.76,10.89,10.89,0,0,0-7.09-2.33A10.73,10.73,0,0,0,409.36,377.71Z" style="fill:#fff"></path><path d="M421.78,371.81a39.39,39.39,0,0,1-1.88-6.44c-.41-2.74-.08-5.71-1.88-8a6.69,6.69,0,0,0-2.16-.35c-1.72.21-3.6.48-5.32.69a6.74,6.74,0,0,0-.81,5.66c1.11,3.5-.17,7.46-.45,11.07,0,.55-.09,1.11-.12,1.67s.11,1.09.2,1.63a10.73,10.73,0,0,1,6.48-2.45,10.89,10.89,0,0,1,7.09,2.33A18,18,0,0,0,421.78,371.81Z" style="fill:#455a64"></path><path d="M411.37,374.69a.63.63,0,0,1-.54-.28.5.5,0,0,1,.25-.71,12.35,12.35,0,0,1,9.14-.39.51.51,0,0,1,.33.69.64.64,0,0,1-.79.29,10.94,10.94,0,0,0-8.11.34A.71.71,0,0,1,411.37,374.69Z" style="fill:#fff"></path><path d="M411.6,371.74a.63.63,0,0,1-.53-.29.49.49,0,0,1,.25-.71,11.71,11.71,0,0,1,8.67-.37.51.51,0,0,1,.33.69.63.63,0,0,1-.79.29,10.3,10.3,0,0,0-7.64.32A.59.59,0,0,1,411.6,371.74Z" style="fill:#fff"></path><path d="M411.6,369a.62.62,0,0,1-.53-.28.5.5,0,0,1,.25-.72,10.9,10.9,0,0,1,8.08-.34.51.51,0,0,1,.33.69.64.64,0,0,1-.79.29,9.49,9.49,0,0,0-7.05.3A.72.72,0,0,1,411.6,369Z" style="fill:#fff"></path><path d="M411.6,366.06a.62.62,0,0,1-.53-.28.5.5,0,0,1,.25-.72,9.8,9.8,0,0,1,7.28-.3.51.51,0,0,1,.33.69.64.64,0,0,1-.79.28,8.39,8.39,0,0,0-6.25.27A.72.72,0,0,1,411.6,366.06Z" style="fill:#fff"></path><path d="M407.82,350.33l2.32,7.89v1.67a3.42,3.42,0,0,0,.76,2.14h0v-1.52a1,1,0,0,1,.65-.94,11.48,11.48,0,0,1,5.35-.26,1.13,1.13,0,0,1,1,1L418,362l.05-.08a3.4,3.4,0,0,0,.48-2.21l-.25-1.94,1.69-7.75Z" style="fill:#db7e7c"></path><path d="M386.45,362.59a6.5,6.5,0,0,1,0-2.67,1.41,1.41,0,0,0-.21-1.18l-.33-.34-.17,1.38a1.59,1.59,0,0,1-1,.85,1.63,1.63,0,0,1-2-1l0-.11a4.17,4.17,0,0,0-3.7-2.75l-1.76-.1a1.26,1.26,0,0,0-1.24.78,24.65,24.65,0,0,1-4.9,7.19,30.93,30.93,0,0,1-3.14,2.92c-.5.4-1,.76-1.53,1.12l-.29.2a9.27,9.27,0,0,1,9,7c4-1.95,3.23-4.94,7.14-6.57a14,14,0,0,0,4.1-2.62A15,15,0,0,0,386.45,362.59Z" style="fill:#455a64"></path><path d="M371.4,370.46a9.48,9.48,0,0,0-5.24-1.58,2.3,2.3,0,0,1-.52.26c-.39.15-.78.29-1.16.45a11.31,11.31,0,0,0-1.76.92,6.34,6.34,0,0,0-1.59,1.46,5,5,0,0,0-.54.92,1.85,1.85,0,0,0-.16.89c2.87,4.62,9.8,4.25,14.33,2.31.16-.06.3-.14.45-.21A9.49,9.49,0,0,0,371.4,370.46Z" style="fill:#fff"></path><path d="M377.29,346.11c.13,3,0,10.56,0,10.56l1.73.1a4.17,4.17,0,0,1,3.7,2.75l0,.11a1.63,1.63,0,0,0,2,1h0a1.59,1.59,0,0,0,1-.85l1.82-13.67Z" style="fill:#db7e7c"></path><path d="M374.76,376.09c-4.53,1.94-11.46,2.31-14.33-2.31V375c2.87,4.62,9.8,4.24,14.33,2.31s3.53-5.1,7.59-6.79a11,11,0,0,0,4-2.5c0-.37.07-.83.14-1.37a14,14,0,0,1-4.1,2.62C378.29,371,379.28,374.16,374.76,376.09Z" style="fill:#fff"></path><path d="M377.69,366.16a.57.57,0,0,0,.89-.72,6.56,6.56,0,0,0-5.91-2.59c-.24.3-.49.59-.74.88A6.33,6.33,0,0,1,377.69,366.16Z" style="fill:#fff"></path><path d="M379.47,364.16a.56.56,0,0,0,.8.08.57.57,0,0,0,.1-.79,6.9,6.9,0,0,0-6.17-2.67c-.22.33-.45.65-.68,1A6.37,6.37,0,0,1,379.47,364.16Z" style="fill:#fff"></path><path d="M375.83,368.12a.58.58,0,0,0,.9-.72,6.55,6.55,0,0,0-5.76-2.61c-.29.31-.59.6-.88.89A6.33,6.33,0,0,1,375.83,368.12Z" style="fill:#fff"></path><path d="M373.92,370a.58.58,0,0,0,.9-.72,6.56,6.56,0,0,0-5.77-2.61c-.36.33-.72.63-1.08.91A6.4,6.4,0,0,1,373.92,370Z" style="fill:#fff"></path><path d="M375.1,248.18S373.77,290.06,374,301s1.28,51.77,1.28,51.77c6.13,3.58,16.94.89,16.94.89.72-34.48,2.08-39.52-.13-52.14,1.56-9.36,3.71-31.19,3.71-31.19,3.05,26.25,5.26,39.78,5.26,39.78l5.25,45c6,3.12,15.92-.19,15.92-.19,0-30,.3-34.88-2.82-54.66-.17-30.44-.24-52.91-.24-52.91Z" style="fill:#37474f"></path><path d="M384,260.91c2.09,5.12,8.64,5.12,8.64,5.12l1.17,5.82-.44,20.69c1.26-10.06,2.46-22.23,2.46-22.23l-.81-6.23A17.25,17.25,0,0,1,384,260.91Z" style="opacity:0.2"></path><path d="M405.74,350.47l-.12-.87a2.71,2.71,0,0,0-.65,2.24,12.14,12.14,0,0,1,.45,1.41,5,5,0,0,1-.21,1.25c-.09.41-.24,1,.15,1.17,4.79,2.15,12.91,1.92,17.68-.3.42-.2.25-1,.15-1.43a9.51,9.51,0,0,1-.32-1.38c0-.5.11-1,.12-1.52a1.69,1.69,0,0,0-.71-1.44v.7A47.25,47.25,0,0,1,405.74,350.47Z" style="fill:#37474f"></path><path d="M405.74,350.47l-.12-.87a2.71,2.71,0,0,0-.65,2.24,12.14,12.14,0,0,1,.45,1.41,5,5,0,0,1-.21,1.25c-.09.41-.24,1,.15,1.17,4.79,2.15,12.91,1.92,17.68-.3.42-.2.25-1,.15-1.43a9.51,9.51,0,0,1-.32-1.38c0-.5.11-1,.12-1.52a1.69,1.69,0,0,0-.71-1.44v.7A47.25,47.25,0,0,1,405.74,350.47Z" style="fill:#fff;opacity:0.1"></path><path d="M375.2,348.05a.8.8,0,0,0-.58.67,2.2,2.2,0,0,0,.06.95,3,3,0,0,1,.14.94,3.2,3.2,0,0,1-.31,1,2.77,2.77,0,0,0-.28,1c0,.34,0,.79.33,1,4.89,2.85,13.1,3.22,18.32,1,.54-.23.57-1.1.37-1.65-.14-.37-.42-.68-.53-1.06a2.16,2.16,0,0,1,.1-1.15,3.7,3.7,0,0,0,.21-1.13,1.18,1.18,0,0,0-.65-1l0,1.48c-5.95,1.52-15,.29-17.11-.87Z" style="fill:#37474f"></path><path d="M375.2,348.05a.8.8,0,0,0-.58.67,2.2,2.2,0,0,0,.06.95,3,3,0,0,1,.14.94,3.2,3.2,0,0,1-.31,1,2.77,2.77,0,0,0-.28,1c0,.34,0,.79.33,1,4.89,2.85,13.1,3.22,18.32,1,.54-.23.57-1.1.37-1.65-.14-.37-.42-.68-.53-1.06a2.16,2.16,0,0,1,.1-1.15,3.7,3.7,0,0,0,.21-1.13,1.18,1.18,0,0,0-.65-1l0,1.48c-5.95,1.52-15,.29-17.11-.87Z" style="fill:#fff;opacity:0.1"></path><path d="M375.1,248.18c.33-7.57,1.31-14.27.88-20.85s-.67-9.6-1.25-13.6a115.93,115.93,0,0,1-.44-12.58,279.37,279.37,0,0,0,29.33,2.19C403,229.2,418.8,234,419.78,234.87l-.58,12.46C403.91,256,375.1,248.18,375.1,248.18Z" style="fill:#37474f"></path><path d="M413.58,198.13c-2.71.1-4,1-6.67,1.06.7,9.43,4.34,17.58,11.84,23.3a182.86,182.86,0,0,0-2.8-21.74Z" style="opacity:0.2"></path><g style="opacity:0.2"><path d="M399.44,211.06a3.05,3.05,0,0,0,3.24-2.93c.05-1.67.14-3.28.28-4.81-2.12-.07-4.15-.15-6.06-.24-.17,1.81-.27,3.49-.33,4.81A3,3,0,0,0,399.44,211.06Z"></path><path d="M378.48,210.34h0a3,3,0,0,0,3.23-2.93c.06-1.89.17-3.69.33-5.38-2.65-.25-4.67-.49-6-.65-.26,2.17-.39,4.2-.45,5.79A3,3,0,0,0,378.48,210.34Z"></path></g><path d="M400.22,188.29c-3.14,3.75-4,13.65-4.15,18.66a3,3,0,0,0,2.87,3.17h0a3,3,0,0,0,3.23-2.94c.27-9.12,1.92-16.45,3.55-17.74l-.45-.86Z" style="fill:#37474f"></path><path d="M379.32,188c-3.14,3.74-4,13.24-4.22,18.25A3.05,3.05,0,0,0,378,209.4h0a3.05,3.05,0,0,0,3.24-2.94c.26-9.12,1.92-16.45,3.54-17.74l-.44-.86Z" style="fill:#37474f"></path><path d="M378,204.17h-.39a1.35,1.35,0,0,1,0,2.68H378a1.35,1.35,0,0,0,0-2.68Z" style="fill:#e0e0e0"></path><path d="M378,204.17h-.39a1.35,1.35,0,0,1,0,2.68H378a1.35,1.35,0,0,0,0-2.68Z" style="opacity:0.2"></path><ellipse cx="377.6" cy="205.51" rx="1.22" ry="1.34" style="fill:#e0e0e0"></ellipse><path d="M399.31,204.87h-.39a1.34,1.34,0,0,1,0,2.67h.39a1.34,1.34,0,0,0,0-2.67Z" style="fill:#e0e0e0"></path><path d="M399.31,204.87h-.39a1.34,1.34,0,0,1,0,2.67h.39a1.34,1.34,0,0,0,0-2.67Z" style="opacity:0.2"></path><path d="M400.14,206.21a1.23,1.23,0,1,0-2.44,0,1.22,1.22,0,1,0,2.44,0Z" style="fill:#e0e0e0"></path><path d="M410.33,207.28s13,10.25,20.28,16.47c-2.08,2.7-4.55,20-8.37,21.41a11.06,11.06,0,0,0-3-.77l-.08,2.94L415.59,251l-5.93,3.39a1.11,1.11,0,0,0-.29,1.64h0a1.14,1.14,0,0,0,1.11.38l3-.51.88.47a4.37,4.37,0,0,0,3.8.14l.66-.3h0a4.31,4.31,0,0,0,5,0,26.21,26.21,0,0,0,6.72-7,53,53,0,0,0,11.21-26.21,9.06,9.06,0,0,0-1.58-6.35c-7-10-20.71-22.7-25.25-25.48a12.31,12.31,0,0,0-9.21-1.83C404.15,199,407,204.53,410.33,207.28Z" style="fill:#db7e7c"></path><path d="M405.72,189.44c-2.83,13.88.83,17.27,16.77,28.16,10.39-3.07,11.12-10.53,11.12-10.53C416.18,188.39,411.11,188.48,405.72,189.44Z" style="fill:#3298DC"></path><path d="M434.63,244.55A12.69,12.69,0,0,0,425,239a42.52,42.52,0,0,1-2.65,5.73,10.39,10.39,0,0,0-3.05-.35l-.08,2.94L415.59,251l-5.9,3.09a1.34,1.34,0,0,0-.69,1.37h0a1.32,1.32,0,0,0,1.6,1.09l2.89-.65c2,2.17,4.87.81,5.34.31,1.58,1.88,4.1.92,5.94-.39a22.3,22.3,0,0,0,6-6.37Z" style="fill:#3298DC"></path><path d="M434.63,244.55A12.69,12.69,0,0,0,425,239a42.52,42.52,0,0,1-2.65,5.73,10.39,10.39,0,0,0-3.05-.35l-.08,2.94L415.59,251l-5.9,3.09a1.34,1.34,0,0,0-.69,1.37h0a1.32,1.32,0,0,0,1.6,1.09l2.89-.65c2,2.17,4.87.81,5.34.31,1.58,1.88,4.1.92,5.94-.39a22.3,22.3,0,0,0,6-6.37Z" style="fill:#fff;opacity:0.4"></path><path d="M402.09,188.4c-3.44,4.44-6.66,19.4-5.8,29.78a1.11,1.11,0,0,1-1.4.68c-.31-.12-.57-.38-.89-.4-.85-.06-1.17,1.39-2,1.37-.43,0-.74-.4-.95-.78s-.43-.8-.84-.94a1.68,1.68,0,0,0-.74,0,1.29,1.29,0,0,1-.73-.06c-.23-.1-.56-.44-.47-.67,0,0,1.32-16.69,10.05-29.5l-.12-3.26C401.37,184.6,402.09,186.6,402.09,188.4Z" style="fill:#455a64"></path><path d="M402.09,188.4c-3.44,4.44-6.66,19.4-5.8,29.78a1.11,1.11,0,0,1-1.4.68c-.31-.12-.57-.38-.89-.4-.85-.06-1.17,1.39-2,1.37-.43,0-.74-.4-.95-.78s-.43-.8-.84-.94a1.68,1.68,0,0,0-.74,0,1.29,1.29,0,0,1-.73-.06c-.23-.1-.56-.44-.47-.67,0,0,1.32-16.69,10.05-29.5l-.12-3.26C401.37,184.6,402.09,186.6,402.09,188.4Z" style="fill:#fff;opacity:0.4"></path><path d="M384.75,216.86c-.82-9.27-.16-22.22,2-28l-.27-3c-1.12.1-3.43,1.8-4.85,5.53S377.66,210,378,216a1.11,1.11,0,0,0,1.27.94,4.6,4.6,0,0,1,.61-.25c.49-.08.86.43,1.1.87s.61.94,1.1.86.62-.45.8-.79.46-.73.85-.73a3.25,3.25,0,0,1,.45.08C384.28,217,384.68,217,384.75,216.86Z" style="fill:#455a64"></path><path d="M384.75,216.86c-.82-9.27-.16-22.22,2-28l-.27-3c-1.12.1-3.43,1.8-4.85,5.53S377.66,210,378,216a1.11,1.11,0,0,0,1.27.94,4.6,4.6,0,0,1,.61-.25c.49-.08.86.43,1.1.87s.61.94,1.1.86.62-.45.8-.79.46-.73.85-.73a3.25,3.25,0,0,1,.45.08C384.28,217,384.68,217,384.75,216.86Z" style="fill:#fff;opacity:0.4"></path><g style="opacity:0.30000000000000004"><path d="M398.31,192a49.65,49.65,0,0,0-4.93,24.41h0c.43-3.44,1-7.9,1.92-12.31S397.37,195.35,398.31,192Z"></path><path d="M394.66,197.24a25,25,0,0,0-2.57,16.2h0a48.82,48.82,0,0,1,2.57-16.2Z"></path><path d="M382.85,213.51c-.05-2.91-.08-6.69.21-10.46s.83-7.5,1.32-10.38h0A37.37,37.37,0,0,0,382.19,203,37.83,37.83,0,0,0,382.85,213.51Z"></path><path d="M380,214.39c.11-2.16.22-5,.46-7.76s.57-5.57.81-7.72h0A37.27,37.27,0,0,0,380,214.39Z"></path></g><path d="M404.28,237.79c0-1.49-.07-3-.11-4.42a111.67,111.67,0,0,1-26.5-2.16c.08,1.51.15,3.09.23,4.67A97.34,97.34,0,0,0,404.28,237.79Z" style="fill:#fff;opacity:0.1"></path><path d="M404.28,237.79a97.34,97.34,0,0,1-26.38-1.91c.09,1.87.18,3.76.28,5.55.12,2.35.34,4.91,1.95,6.62,1.37,1.45,3.44,2,5.4,2.32a75.32,75.32,0,0,0,13.82,1.23c1.59,0,3.39-.17,4.38-1.41a5.63,5.63,0,0,0,.76-3.7C404.41,243.66,404.35,240.71,404.28,237.79Z" style="fill:#fff;opacity:0.05"></path><path d="M351.53,334.94a13.88,13.88,0,0,0-5.95-8.55l-13.19-7.61a4.7,4.7,0,0,0-4-.64h0a18.64,18.64,0,0,0-5.27,2.77h0c1.16-.75,2.79-.67,4.55.35l13.19,7.62a13.85,13.85,0,0,1,6,8.55l2.28,10.18,4.71-2.49Z" style="fill:#3298DC"></path><path d="M351.53,334.94a13.88,13.88,0,0,0-5.95-8.55l-13.19-7.61a4.7,4.7,0,0,0-4-.64h0a18.64,18.64,0,0,0-5.27,2.77h0c1.16-.75,2.79-.67,4.55.35l13.19,7.62a13.85,13.85,0,0,1,6,8.55l2.28,10.18,4.71-2.49Z" style="opacity:0.2"></path><path d="M340.86,328.88l-13.19-7.62c-1.76-1-3.39-1.1-4.55-.35a3.62,3.62,0,0,0-1.43,2l-2.33,7.52,29.74,17.17-2.28-10.18A13.85,13.85,0,0,0,340.86,328.88Z" style="fill:#3298DC"></path><path d="M340.86,328.88l-13.19-7.62c-1.76-1-3.39-1.1-4.55-.35a3.62,3.62,0,0,0-1.43,2l-2.33,7.52,29.74,17.17-2.28-10.18A13.85,13.85,0,0,0,340.86,328.88Z" style="opacity:0.1"></path><path d="M334.51,141v182.3a1,1,0,0,0,.61.85,3.24,3.24,0,0,0,2.94,0,1,1,0,0,0,.61-.85h0V141Z" style="fill:#3298DC"></path><path d="M334.51,141v182.3a1,1,0,0,0,.61.85,3.24,3.24,0,0,0,2.94,0,1,1,0,0,0,.61-.85h0V141Z" style="opacity:0.1"></path><path d="M338.05,140.13a3.24,3.24,0,0,0-2.94,0,.91.91,0,0,0,0,1.71,3.24,3.24,0,0,0,2.94,0A.9.9,0,0,0,338.05,140.13Z" style="fill:#3298DC"></path><polygon points="329.07 356.92 330.33 356.16 330.85 347.75 329.07 356.92" style="fill:#3298DC"></polygon><polygon points="317.86 350.5 319.45 349.45 320.76 341.64 317.86 350.5" style="fill:#3298DC"></polygon><polygon points="333.31 359.35 334.23 358.8 334.23 353.86 333.31 359.35" style="fill:#3298DC"></polygon><polygon points="323.36 353.65 324.66 352.93 326.1 342.16 323.36 353.65" style="fill:#3298DC"></polygon><path d="M349.1,347.61l-29.74-17.17-5.76,17.61,4.26,2.45,2.9-8.86-1.61,9.6,4.21,2.41,2.74-11.49-1.62,12.13,4.59,2.63,1.78-9.17-.61,9.84,3.07,1.76.92-5.49v6l3.91,2.24c.8-4,2.29-11.32,2.29-11.32l-1.2,11.95,4.4,2.52,1.05-4.75-.31,5.18,4.1,2.34Z" style="fill:#3298DC"></path><path d="M349.1,347.61l-29.74-17.17-5.76,17.61,4.26,2.45,2.9-8.86-1.61,9.6,4.21,2.41,2.74-11.49-1.62,12.13,4.59,2.63,1.78-9.17-.61,9.84,3.07,1.76.92-5.49v6l3.91,2.24c.8-4,2.29-11.32,2.29-11.32l-1.2,11.95,4.4,2.52,1.05-4.75-.31,5.18,4.1,2.34Z" style="opacity:0.30000000000000004"></path><polygon points="343.63 365.26 344.44 364.61 344.68 360.51 343.63 365.26" style="fill:#3298DC"></polygon><path d="M338.14,362.11l1.22-.65,1.07-10.67S338.94,358.13,338.14,362.11Z" style="fill:#3298DC"></path><polygon points="329.07 356.92 330.33 356.16 330.85 347.75 329.07 356.92" style="opacity:0.5"></polygon><polygon points="317.86 350.5 319.45 349.45 320.76 341.64 317.86 350.5" style="opacity:0.5"></polygon><polygon points="333.31 359.35 334.23 358.8 334.23 353.86 333.31 359.35" style="opacity:0.5"></polygon><polygon points="323.36 353.65 324.66 352.93 326.1 342.16 323.36 353.65" style="opacity:0.5"></polygon><polygon points="343.63 365.26 344.44 364.61 344.68 360.51 343.63 365.26" style="opacity:0.5"></polygon><path d="M338.14,362.11l1.22-.65,1.07-10.67S338.94,358.13,338.14,362.11Z" style="opacity:0.5"></path><polygon points="353.17 364.28 354.05 364.79 352.76 356.43 353.17 364.28" style="fill:#3298DC"></polygon><polygon points="356.01 359.14 356.58 361.95 357.69 362.67 356.01 359.14" style="fill:#3298DC"></polygon><polygon points="353.17 364.28 354.05 364.79 352.76 356.43 353.17 364.28" style="opacity:0.5"></polygon><polygon points="356.01 359.14 356.58 361.95 357.69 362.67 356.01 359.14" style="opacity:0.5"></polygon><polygon points="357.69 362.67 359.52 361.61 353.81 345.12 349.1 347.61 348.46 368.03 353.21 365.27 352.76 356.43 354.05 364.79 356.83 363.17 356.01 359.14 357.69 362.67" style="fill:#3298DC"></polygon><polygon points="357.69 362.67 359.52 361.61 353.81 345.12 349.1 347.61 348.46 368.03 353.21 365.27 352.76 356.43 354.05 364.79 356.83 363.17 356.01 359.14 357.69 362.67" style="opacity:0.4"></polygon></g><g id="freepik--speech-bubble--inject-3"><path d="M356.09,49.8l60.43,35a7.95,7.95,0,0,1,4,6.84v30.67a7.79,7.79,0,0,1-11.91,6.42l-11-6.46.18,4a.35.35,0,0,1-.11.1h0l-.08.05h0c-1.16.77-3.19,1.86-3.65,2.1l0,0a.43.43,0,0,1-.54-.27l-12.21-15.35h0l-33-19.06a7.89,7.89,0,0,1-4-6.85V56.22C344.17,50.53,352.55,47.77,356.09,49.8Z" style="fill:#3298DC"></path><polygon points="397.55 122.24 392.88 119.5 393.89 128.51 397.73 126.28 397.55 122.24" style="fill:#fff;opacity:0.2"></polygon><path d="M409.5,89.55h0Z" style="fill:none"></path><path d="M411.61,92.2a7.93,7.93,0,0,0-2.11-2.64h0a7,7,0,0,0-1-.65l-60.43-35a2.63,2.63,0,0,0-3.94,2.28c0-5.69,8.38-8.45,11.92-6.42l60.43,35a7.86,7.86,0,0,1,2.94,3Z" style="fill:#fff;opacity:0.4"></path><path d="M412.5,126.41V95.74a7.26,7.26,0,0,0-.06-.93,8.21,8.21,0,0,0-.83-2.61l7.85-4.45a7.89,7.89,0,0,1,1,3.86v30.67a7.79,7.79,0,0,1-11.91,6.42A2.63,2.63,0,0,0,412.5,126.41Z" style="fill:#fff;opacity:0.2"></path><path d="M357.88,73.25a5.81,5.81,0,0,1,3,5.39l0,7.47c0,2.38-1,3.09-3,1.92l-3.2-1.84,0-14.79Zm1,11.81,0-7.69a2.12,2.12,0,0,0-1-2l-1.15-.66,0,10.57,1.15.66c.64.38,1,.22,1-.84" style="fill:#fff"></path><path d="M365.08,77.23a6.1,6.1,0,0,1,3.07,5.5l0,7.69c0,2.36-1.1,3.09-3.09,2a6.09,6.09,0,0,1-3.05-5.5l0-7.68C362,76.82,363.1,76.08,365.08,77.23Zm1,12.16,0-8a2.14,2.14,0,0,0-1-2.07c-.64-.36-1.05-.21-1.05.86l0,8a2.15,2.15,0,0,0,1.05,2.06c.65.38,1.05.21,1.05-.85" style="fill:#fff"></path><polygon points="375.87 83.63 375.83 98.42 373.75 97.22 371.29 85.07 371.25 85.05 371.22 95.76 369.4 94.71 369.44 79.92 371.98 81.39 374 91.41 374.04 91.43 374.06 82.59 375.87 83.63" style="fill:#fff"></polygon><polygon points="382.84 87.65 382.83 89.76 379.34 87.75 379.33 91.87 382.1 93.47 382.1 95.58 379.32 93.98 379.31 98.32 382.8 100.33 382.8 102.44 377.28 99.26 377.32 84.47 382.84 87.65" style="fill:#fff"></polygon><polygon points="384.08 103.18 384.08 100.95 386.04 102.08 386.04 104.31 384.08 103.18" style="fill:#fff"></polygon><polygon points="384.09 88.38 386.11 89.54 386.09 95.71 385.82 100.91 384.31 100.03 384.07 94.54 384.09 88.38" style="fill:#fff"></polygon><path d="M404,100.54a2.48,2.48,0,0,1,.7.68c.53.8.59,1.75.12,2l-9.13,5.48a.88.88,0,0,1-.9-.08,2.62,2.62,0,0,1-.93-1l-3.5-6.63c-.42-.77-.36-1.58.14-1.77a.84.84,0,0,1,.72.11,2.37,2.37,0,0,1,.84.92l2.9,5.35,8.19-5.14A.85.85,0,0,1,404,100.54Z" style="fill:#fff"></path></g><g id="freepik--Sign--inject-3"><polygon points="295.69 428.41 297.49 426.81 297.27 422.93 295.33 421.81 295.69 428.41" style="fill:#3298DC"></polygon><polygon points="284.23 378.95 281.62 377.44 283.51 384.59 285.3 383 284.23 378.95" style="fill:#3298DC"></polygon><polygon points="285.3 383 283.51 384.59 304.85 396.92 304.03 393.81 285.3 383" style="fill:#3298DC"></polygon><path d="M274.46,368.54l14.86,56.19,6.37,3.68-.36-6.6,1.94,1.12L312,431.44l3.61,8.47L322,443.6l-14.86-56.19Zm9.05,16-1.89-7.15,2.61,1.51L303,389.76l1.07,4.05.82,3.11Z" style="fill:#3298DC"></path><path d="M274.46,368.54l14.86,56.19,6.37,3.68-.36-6.6,1.94,1.12L312,431.44l3.61,8.47L322,443.6l-14.86-56.19Zm9.05,16-1.89-7.15,2.61,1.51L303,389.76l1.07,4.05.82,3.11Z" style="opacity:0.30000000000000004"></path><polygon points="308.94 385.81 276.25 366.94 274.46 368.54 307.15 387.41 308.94 385.81" style="fill:#3298DC"></polygon><polygon points="308.94 385.81 307.15 387.41 322.01 443.6 323.8 442 308.94 385.81" style="fill:#3298DC"></polygon><polygon points="295.69 428.41 297.49 426.81 297.27 422.93 295.33 421.81 295.69 428.41" style="opacity:0.4"></polygon><polygon points="284.23 378.95 281.62 377.44 283.51 384.59 285.3 383 284.23 378.95" style="opacity:0.4"></polygon><polygon points="285.3 383 283.51 384.59 304.85 396.92 304.03 393.81 285.3 383" style="opacity:0.2"></polygon><polygon points="308.94 385.81 276.25 366.94 274.46 368.54 307.15 387.41 308.94 385.81" style="opacity:0.2"></polygon><polygon points="308.94 385.81 307.15 387.41 322.01 443.6 323.8 442 308.94 385.81" style="opacity:0.4"></polygon><polygon points="263.82 446.38 265.61 445.89 268.77 438.18 267.49 437.44 263.82 446.38" style="fill:#3298DC;opacity:0.9400000000000001"></polygon><polygon points="278.32 380.55 276.81 379.68 274.88 389.06 276.67 388.57 278.32 380.55" style="fill:#3298DC;opacity:0.9400000000000001"></polygon><polygon points="274.88 389.06 296.22 401.38 296.5 400.02 276.67 388.57 274.88 389.06" style="fill:#3298DC;opacity:0.9400000000000001"></polygon><path d="M272.67,369,257.44,442.7l6.38,3.68,3.66-8.94,1.29.74,15.4,8.89-.42,10.82,6.38,3.68,15.23-73.67Zm23.55,32.35-21.35-12.32,1.94-9.38,1.51.87L298.16,392l-1.66,8Z" style="fill:#3298DC"></path><polygon points="307.15 387.42 274.46 368.54 272.67 369.03 305.36 387.9 307.15 387.42" style="fill:#3298DC;opacity:0.9400000000000001"></polygon><polygon points="305.36 387.9 290.13 461.57 291.92 461.09 307.15 387.42 305.36 387.9" style="fill:#3298DC;opacity:0.9400000000000001"></polygon><polygon points="263.82 446.38 265.61 445.89 268.77 438.18 267.49 437.44 263.82 446.38" style="opacity:0.4"></polygon><polygon points="278.32 380.55 276.81 379.68 274.88 389.06 276.67 388.57 278.32 380.55" style="opacity:0.4"></polygon><polygon points="274.88 389.06 296.22 401.38 296.5 400.02 276.67 388.57 274.88 389.06" style="opacity:0.2"></polygon><polygon points="307.15 387.42 274.46 368.54 272.67 369.03 305.36 387.9 307.15 387.42" style="opacity:0.2"></polygon><polygon points="305.36 387.9 290.13 461.57 291.92 461.09 307.15 387.42 305.36 387.9" style="opacity:0.4"></polygon><g style="opacity:0.5"><path d="M275.18,393.45a2.67,2.67,0,0,1,1.23,1.56l-.71.33a1.61,1.61,0,0,0-.67-.91c-.52-.31-1-.06-1.13.64a1.53,1.53,0,0,0,.66,1.67.72.72,0,0,0,.85,0l.45,1a1.33,1.33,0,0,1-1.55,0,3,3,0,0,1-1.33-3.13C273.23,393.3,274.16,392.86,275.18,393.45Z" style="fill:#fff"></path><polygon points="287.85 400.85 287.01 404.91 286.1 404.38 286.94 400.32 287.85 400.85" style="fill:#fff"></polygon><polygon points="286.6 400.13 286.41 401.04 285.43 400.47 284.78 403.62 283.87 403.09 284.52 399.95 283.53 399.38 283.72 398.46 286.6 400.13" style="fill:#fff"></polygon><polygon points="295.46 405.24 294.62 409.3 293.87 408.87 292.9 405.88 292.45 408.05 291.56 407.53 292.39 403.47 293.15 403.91 294.12 406.89 294.57 404.73 295.46 405.24" style="fill:#fff"></polygon><path d="M290.14,402.08a3,3,0,0,1,1.36,3.15,1.41,1.41,0,0,1-2.23,1.08,3,3,0,0,1-1.35-3.15A1.4,1.4,0,0,1,290.14,402.08Zm-.67,3.27c.48.29,1,0,1.11-.66a1.55,1.55,0,0,0-.64-1.65c-.48-.28-1-.05-1.1.65a1.53,1.53,0,0,0,.63,1.66" style="fill:#fff"></path><polygon points="278.53 425.87 276.38 429.81 275.27 429.17 275.14 425.94 273.83 428.34 272.71 427.69 272.48 422.38 273.55 423 273.68 426.38 275.07 423.87 276.02 424.42 276.15 427.83 277.54 425.3 278.53 425.87" style="fill:#fff"></polygon><path d="M280.1,417.46a2.1,2.1,0,0,1,1,2.2,1,1,0,0,1-1.59.76,2.17,2.17,0,0,1-1-2.24A1,1,0,0,1,280.1,417.46Z" style="fill:#fff"></path><polygon points="281.11 417.15 279.41 416.17 280.3 409.6 282.85 411.07 281.11 417.15" style="fill:#fff"></polygon><path d="M287.13,422.25a3.58,3.58,0,0,1-.64,3.08,1.85,1.85,0,0,1-2.43.32L274,419.81a4.11,4.11,0,0,1-1.8-2.76,3.58,3.58,0,0,1,.64-3.08l7.33-8.1a1.86,1.86,0,0,1,2.44-.32,4.07,4.07,0,0,1,1.79,2.76Zm-1.28,2.09a2.3,2.3,0,0,0,.41-2l-2.78-13.95a2.63,2.63,0,0,0-1.15-1.77,1.18,1.18,0,0,0-1.56.21l-7.34,8.1a2.31,2.31,0,0,0-.41,2,2.63,2.63,0,0,0,1.16,1.78l10.11,5.83a1.18,1.18,0,0,0,1.56-.2" style="fill:#fff"></path><path d="M283.45,398.31l-.46,2.25c-.25,1.21-.95,1.57-1.91,1a2.43,2.43,0,0,1-1.12-2.76l.47-2.26.91.53-.46,2.22c-.15.69,0,1.1.41,1.32s.67.08.81-.62l.46-2.22Z" style="fill:#fff"></path><path d="M278.84,395.65l.59,4.88-.95-.55-.09-.93-1.37-.79-.41.64-.93-.53,2.26-3.24Zm-1.37,1.92.82.48-.14-1.54-.68,1.06" style="fill:#fff"></path><path d="M281.13,434.44a3.4,3.4,0,0,1,1.54,3.58,1.59,1.59,0,0,1-2.53,1.23,3.43,3.43,0,0,1-1.55-3.59A1.6,1.6,0,0,1,281.13,434.44Zm-.77,3.73c.56.32,1.1,0,1.27-.75a1.8,1.8,0,0,0-.72-1.9c-.56-.32-1.1,0-1.27.75a1.78,1.78,0,0,0,.72,1.9" style="fill:#fff"></path><polygon points="285.38 429.82 285.16 430.86 284.04 430.21 283.3 433.81 282.26 433.2 283 429.61 281.87 428.96 282.08 427.92 285.38 429.82" style="fill:#fff"></polygon><path d="M276.69,431.87a3.44,3.44,0,0,1,1.54,3.59,1.6,1.6,0,0,1-2.54,1.22,3.43,3.43,0,0,1-1.54-3.58A1.6,1.6,0,0,1,276.69,431.87Zm-.77,3.73c.55.32,1.1,0,1.26-.75a1.75,1.75,0,0,0-.72-1.89c-.55-.32-1.1,0-1.26.74a1.77,1.77,0,0,0,.72,1.9" style="fill:#fff"></path><polygon points="281.79 427.75 281.58 428.76 279.73 427.69 279.56 428.47 281.19 429.42 280.99 430.4 279.36 429.45 279.19 430.3 281.11 431.41 280.9 432.42 277.94 430.71 278.9 426.09 281.79 427.75" style="fill:#fff"></polygon><polygon points="272.71 429.68 271.97 433.27 273.72 434.28 273.5 435.32 270.71 433.71 271.67 429.08 272.71 429.68" style="fill:#fff"></polygon><polygon points="271.18 428.8 270.97 429.81 269.13 428.75 268.92 429.76 270.54 430.7 270.33 431.71 268.71 430.77 268.38 432.36 267.34 431.76 268.3 427.13 271.18 428.8" style="fill:#fff"></polygon><path d="M285.64,440.69l.49,1.92L285,442l-.42-1.62L284,440l-.26,1.23-1-.6,1-4.62,1.68,1a2.45,2.45,0,0,1,1.28,2.65C286.52,440.33,286.16,440.68,285.64,440.69Zm-.81-1.34c.43.24.69.12.78-.31a.93.93,0,0,0-.5-1.05l-.58-.33-.28,1.35.58.34" style="fill:#fff"></path></g></g><g id="freepik--Sparkles--inject-3"><path d="M137.52,212.4l.79,3.71a1.36,1.36,0,0,0,1.06,1.06l3.71.78-3.71.79a1.35,1.35,0,0,0-1.06,1l-.79,3.72-.78-3.72a1.36,1.36,0,0,0-1.06-1L132,218l3.71-.78a1.37,1.37,0,0,0,1.06-1.06Z" style="fill:#3298DC"></path><path d="M152.1,241.56l.54,2.55a1,1,0,0,0,.73.73l2.55.54-2.55.54a.94.94,0,0,0-.73.72l-.54,2.56-.53-2.56a.94.94,0,0,0-.73-.72l-2.55-.54,2.55-.54a1,1,0,0,0,.73-.73Z" style="fill:#3298DC"></path><path d="M174,211.7l.54,2.56a.94.94,0,0,0,.73.72l2.55.54-2.55.54a1,1,0,0,0-.73.73l-.54,2.55-.53-2.55a1,1,0,0,0-.73-.73l-2.55-.54,2.55-.54a.94.94,0,0,0,.73-.72Z" style="fill:#3298DC"></path><path d="M244.45,219.34l.83,3.95a1.46,1.46,0,0,0,1.12,1.12l3.95.83-3.95.84a1.45,1.45,0,0,0-1.12,1.12l-.83,3.94-.84-3.94a1.45,1.45,0,0,0-1.12-1.12l-4-.84,4-.83a1.46,1.46,0,0,0,1.12-1.12Z" style="fill:#3298DC"></path><path d="M247.57,205.11l.44,2.09a.76.76,0,0,0,.6.59l2.08.44-2.08.44a.78.78,0,0,0-.6.6l-.44,2.09-.44-2.09a.78.78,0,0,0-.6-.6l-2.08-.44,2.08-.44a.76.76,0,0,0,.6-.59Z" style="fill:#3298DC"></path><path d="M231.77,228.54l.62,2.9a1.06,1.06,0,0,0,.82.83l2.9.61-2.9.61a1.06,1.06,0,0,0-.82.83l-.62,2.9-.61-2.9a1.07,1.07,0,0,0-.82-.83l-2.9-.61,2.9-.61a1.07,1.07,0,0,0,.82-.83Z" style="fill:#3298DC"></path><path d="M143.08,272.46l.73,3.48a1.32,1.32,0,0,0,1,1l3.49.73-3.49.74a1.29,1.29,0,0,0-1,1l-.73,3.48-.74-3.48a1.26,1.26,0,0,0-1-1l-3.48-.74,3.48-.73a1.29,1.29,0,0,0,1-1Z" style="fill:#3298DC"></path><path d="M126.59,268.12l.46,2.2a.83.83,0,0,0,.63.63l2.21.46-2.21.47a.83.83,0,0,0-.63.63l-.46,2.2-.47-2.2a.8.8,0,0,0-.62-.63l-2.21-.47,2.21-.46a.8.8,0,0,0,.62-.63Z" style="fill:#3298DC"></path><path d="M141,292.94l.68,3.25a1.2,1.2,0,0,0,.93.92l3.25.69-3.25.68a1.2,1.2,0,0,0-.93.93l-.68,3.25-.69-3.25a1.2,1.2,0,0,0-.93-.93l-3.24-.68,3.24-.69a1.2,1.2,0,0,0,.93-.92Z" style="fill:#3298DC"></path><path d="M196.54,288.08l.44,2.09a.77.77,0,0,0,.59.59l2.09.44-2.09.44a.79.79,0,0,0-.59.6l-.44,2.09-.44-2.09a.78.78,0,0,0-.6-.6l-2.09-.44,2.09-.44a.77.77,0,0,0,.6-.59Z" style="fill:#3298DC"></path><path d="M196.89,262l.39,1.86a.69.69,0,0,0,.53.53l1.85.39-1.85.39a.67.67,0,0,0-.53.53l-.39,1.86-.4-1.86a.67.67,0,0,0-.52-.53l-1.86-.39,1.86-.39a.69.69,0,0,0,.52-.53Z" style="fill:#3298DC"></path><path d="M103.33,231.32l.42,2a.73.73,0,0,0,.56.56l2,.42-2,.42a.7.7,0,0,0-.56.56l-.42,2-.42-2a.7.7,0,0,0-.56-.56l-2-.42,2-.42a.73.73,0,0,0,.56-.56Z" style="fill:#3298DC"></path><path d="M73.65,215.18l.64,3a1.1,1.1,0,0,0,.85.86l3,.64-3,.64a1.09,1.09,0,0,0-.85.85l-.64,3-.64-3a1.1,1.1,0,0,0-.86-.85l-3-.64,3-.64a1.12,1.12,0,0,0,.86-.86Z" style="fill:#3298DC"></path><path d="M66.1,212.31l.23,1.1a.42.42,0,0,0,.31.32l1.11.23-1.11.23a.42.42,0,0,0-.31.32l-.23,1.1-.23-1.1a.43.43,0,0,0-.32-.32l-1.1-.23,1.1-.23a.43.43,0,0,0,.32-.32Z" style="fill:#3298DC"></path><path d="M69.48,230.1l.25,1.16a.4.4,0,0,0,.33.33l1.16.25-1.16.24a.43.43,0,0,0-.33.33l-.25,1.16-.24-1.16a.46.46,0,0,0-.33-.33l-1.16-.24,1.16-.25a.43.43,0,0,0,.33-.33Z" style="fill:#3298DC"></path><path d="M129.8,173.43l.43,2a.75.75,0,0,0,.58.58l2,.43-2,.43a.75.75,0,0,0-.58.58l-.43,2-.43-2a.75.75,0,0,0-.58-.58l-2-.43,2-.43a.75.75,0,0,0,.58-.58Z" style="fill:#3298DC"></path><path d="M161,167.62l.41,2a.73.73,0,0,0,.56.56l2,.42-2,.41a.73.73,0,0,0-.56.57l-.41,2-.42-2A.73.73,0,0,0,160,171l-2-.41,2-.42a.73.73,0,0,0,.56-.56Z" style="fill:#3298DC"></path><path d="M178.05,151.56l.29,1.34a.47.47,0,0,0,.38.37l1.33.29-1.33.28a.48.48,0,0,0-.38.38l-.29,1.33-.28-1.33a.49.49,0,0,0-.38-.38l-1.33-.28,1.33-.29a.48.48,0,0,0,.38-.37Z" style="fill:#3298DC"></path><path d="M167.21,169.87l.29,1.4a.52.52,0,0,0,.4.39l1.39.3-1.39.29a.51.51,0,0,0-.4.4l-.29,1.39-.3-1.39a.51.51,0,0,0-.4-.4l-1.39-.29,1.39-.3a.52.52,0,0,0,.4-.39Z" style="fill:#3298DC"></path><path d="M203.13,139.32l.37,1.74a.64.64,0,0,0,.5.5l1.74.37-1.74.36a.66.66,0,0,0-.5.5l-.37,1.74-.36-1.74a.67.67,0,0,0-.5-.5l-1.74-.36,1.74-.37a.66.66,0,0,0,.5-.5Z" style="fill:#3298DC"></path><path d="M207,147.66l.18.81a.3.3,0,0,0,.23.23l.81.17-.81.17a.3.3,0,0,0-.23.23l-.18.82-.17-.82a.3.3,0,0,0-.23-.23l-.81-.17.81-.17a.3.3,0,0,0,.23-.23Z" style="fill:#3298DC"></path><path d="M89.62,278.36l.44,2.09a.76.76,0,0,0,.59.59l2.09.44-2.09.44a.76.76,0,0,0-.59.6l-.44,2.09-.44-2.09a.78.78,0,0,0-.6-.6l-2.09-.44,2.09-.44a.79.79,0,0,0,.6-.59Z" style="fill:#3298DC"></path><path d="M114.74,302.61l.42,2a.79.79,0,0,0,.57.57l2,.42-2,.42a.75.75,0,0,0-.57.57l-.42,2-.42-2a.73.73,0,0,0-.57-.57l-2-.42,2-.42a.75.75,0,0,0,.57-.57Z" style="fill:#3298DC"></path><path d="M99.12,322.4l.28,1.31a.48.48,0,0,0,.37.37l1.3.27-1.3.28a.47.47,0,0,0-.37.37l-.28,1.31L98.85,325a.48.48,0,0,0-.38-.37l-1.3-.28,1.3-.27a.5.5,0,0,0,.38-.37Z" style="fill:#3298DC"></path><path d="M71.52,324.74l.43,2a.74.74,0,0,0,.56.57l2,.42-2,.42a.73.73,0,0,0-.56.57l-.43,2-.42-2a.73.73,0,0,0-.57-.57l-2-.42,2-.42a.74.74,0,0,0,.57-.57Z" style="fill:#3298DC"></path><path d="M66.84,322.14l.23,1.13a.43.43,0,0,0,.33.32l1.13.24-1.13.24a.45.45,0,0,0-.33.32l-.23,1.14-.24-1.14a.43.43,0,0,0-.33-.32l-1.13-.24,1.13-.24a.42.42,0,0,0,.33-.32Z" style="fill:#3298DC"></path><path d="M79.2,318.11l.44,2.08a.78.78,0,0,0,.6.6l2.09.44-2.09.44a.78.78,0,0,0-.6.6l-.44,2.08-.44-2.08a.76.76,0,0,0-.59-.6l-2.09-.44,2.09-.44a.76.76,0,0,0,.59-.6Z" style="fill:#3298DC"></path><path d="M52.26,300.79l.34,1.65a.62.62,0,0,0,.48.48l1.65.34-1.65.35a.62.62,0,0,0-.48.47l-.34,1.66-.35-1.66a.63.63,0,0,0-.47-.47l-1.66-.35,1.66-.34a.62.62,0,0,0,.47-.48Z" style="fill:#3298DC"></path><path d="M172.67,122.31l.55,2.61a1,1,0,0,0,.75.75l2.61.55-2.61.55a1,1,0,0,0-.75.74l-.55,2.61-.55-2.61a1,1,0,0,0-.74-.74l-2.61-.55,2.61-.55a1,1,0,0,0,.74-.75Z" style="fill:#3298DC"></path><g style="opacity:0.7000000000000001"><path d="M137.52,212.4l.79,3.71a1.36,1.36,0,0,0,1.06,1.06l3.71.78-3.71.79a1.35,1.35,0,0,0-1.06,1l-.79,3.72-.78-3.72a1.36,1.36,0,0,0-1.06-1L132,218l3.71-.78a1.37,1.37,0,0,0,1.06-1.06Z" style="fill:#fff"></path><path d="M152.1,241.56l.54,2.55a1,1,0,0,0,.73.73l2.55.54-2.55.54a.94.94,0,0,0-.73.72l-.54,2.56-.53-2.56a.94.94,0,0,0-.73-.72l-2.55-.54,2.55-.54a1,1,0,0,0,.73-.73Z" style="fill:#fff"></path><path d="M174,211.7l.54,2.56a.94.94,0,0,0,.73.72l2.55.54-2.55.54a1,1,0,0,0-.73.73l-.54,2.55-.53-2.55a1,1,0,0,0-.73-.73l-2.55-.54,2.55-.54a.94.94,0,0,0,.73-.72Z" style="fill:#fff"></path><path d="M244.45,219.34l.83,3.95a1.46,1.46,0,0,0,1.12,1.12l3.95.83-3.95.84a1.45,1.45,0,0,0-1.12,1.12l-.83,3.94-.84-3.94a1.45,1.45,0,0,0-1.12-1.12l-4-.84,4-.83a1.46,1.46,0,0,0,1.12-1.12Z" style="fill:#fff"></path><path d="M247.57,205.11l.44,2.09a.76.76,0,0,0,.6.59l2.08.44-2.08.44a.78.78,0,0,0-.6.6l-.44,2.09-.44-2.09a.78.78,0,0,0-.6-.6l-2.08-.44,2.08-.44a.76.76,0,0,0,.6-.59Z" style="fill:#fff"></path><path d="M231.77,228.54l.62,2.9a1.06,1.06,0,0,0,.82.83l2.9.61-2.9.61a1.06,1.06,0,0,0-.82.83l-.62,2.9-.61-2.9a1.07,1.07,0,0,0-.82-.83l-2.9-.61,2.9-.61a1.07,1.07,0,0,0,.82-.83Z" style="fill:#fff"></path><path d="M143.08,272.46l.73,3.48a1.32,1.32,0,0,0,1,1l3.49.73-3.49.74a1.29,1.29,0,0,0-1,1l-.73,3.48-.74-3.48a1.26,1.26,0,0,0-1-1l-3.48-.74,3.48-.73a1.29,1.29,0,0,0,1-1Z" style="fill:#fff"></path><path d="M126.59,268.12l.46,2.2a.83.83,0,0,0,.63.63l2.21.46-2.21.47a.83.83,0,0,0-.63.63l-.46,2.2-.47-2.2a.8.8,0,0,0-.62-.63l-2.21-.47,2.21-.46a.8.8,0,0,0,.62-.63Z" style="fill:#fff"></path><path d="M141,292.94l.68,3.25a1.2,1.2,0,0,0,.93.92l3.25.69-3.25.68a1.2,1.2,0,0,0-.93.93l-.68,3.25-.69-3.25a1.2,1.2,0,0,0-.93-.93l-3.24-.68,3.24-.69a1.2,1.2,0,0,0,.93-.92Z" style="fill:#fff"></path><path d="M196.54,288.08l.44,2.09a.77.77,0,0,0,.59.59l2.09.44-2.09.44a.79.79,0,0,0-.59.6l-.44,2.09-.44-2.09a.78.78,0,0,0-.6-.6l-2.09-.44,2.09-.44a.77.77,0,0,0,.6-.59Z" style="fill:#fff"></path><path d="M196.89,262l.39,1.86a.69.69,0,0,0,.53.53l1.85.39-1.85.39a.67.67,0,0,0-.53.53l-.39,1.86-.4-1.86a.67.67,0,0,0-.52-.53l-1.86-.39,1.86-.39a.69.69,0,0,0,.52-.53Z" style="fill:#fff"></path><path d="M103.33,231.32l.42,2a.73.73,0,0,0,.56.56l2,.42-2,.42a.7.7,0,0,0-.56.56l-.42,2-.42-2a.7.7,0,0,0-.56-.56l-2-.42,2-.42a.73.73,0,0,0,.56-.56Z" style="fill:#fff"></path><path d="M73.65,215.18l.64,3a1.1,1.1,0,0,0,.85.86l3,.64-3,.64a1.09,1.09,0,0,0-.85.85l-.64,3-.64-3a1.1,1.1,0,0,0-.86-.85l-3-.64,3-.64a1.12,1.12,0,0,0,.86-.86Z" style="fill:#fff"></path><path d="M66.1,212.31l.23,1.1a.42.42,0,0,0,.31.32l1.11.23-1.11.23a.42.42,0,0,0-.31.32l-.23,1.1-.23-1.1a.43.43,0,0,0-.32-.32l-1.1-.23,1.1-.23a.43.43,0,0,0,.32-.32Z" style="fill:#fff"></path><path d="M69.48,230.1l.25,1.16a.4.4,0,0,0,.33.33l1.16.25-1.16.24a.43.43,0,0,0-.33.33l-.25,1.16-.24-1.16a.46.46,0,0,0-.33-.33l-1.16-.24,1.16-.25a.43.43,0,0,0,.33-.33Z" style="fill:#fff"></path><path d="M129.8,173.43l.43,2a.75.75,0,0,0,.58.58l2,.43-2,.43a.75.75,0,0,0-.58.58l-.43,2-.43-2a.75.75,0,0,0-.58-.58l-2-.43,2-.43a.75.75,0,0,0,.58-.58Z" style="fill:#fff"></path><path d="M161,167.62l.41,2a.73.73,0,0,0,.56.56l2,.42-2,.41a.73.73,0,0,0-.56.57l-.41,2-.42-2A.73.73,0,0,0,160,171l-2-.41,2-.42a.73.73,0,0,0,.56-.56Z" style="fill:#fff"></path><path d="M178.05,151.56l.29,1.34a.47.47,0,0,0,.38.37l1.33.29-1.33.28a.48.48,0,0,0-.38.38l-.29,1.33-.28-1.33a.49.49,0,0,0-.38-.38l-1.33-.28,1.33-.29a.48.48,0,0,0,.38-.37Z" style="fill:#fff"></path><path d="M167.21,169.87l.29,1.4a.52.52,0,0,0,.4.39l1.39.3-1.39.29a.51.51,0,0,0-.4.4l-.29,1.39-.3-1.39a.51.51,0,0,0-.4-.4l-1.39-.29,1.39-.3a.52.52,0,0,0,.4-.39Z" style="fill:#fff"></path><path d="M203.13,139.32l.37,1.74a.64.64,0,0,0,.5.5l1.74.37-1.74.36a.66.66,0,0,0-.5.5l-.37,1.74-.36-1.74a.67.67,0,0,0-.5-.5l-1.74-.36,1.74-.37a.66.66,0,0,0,.5-.5Z" style="fill:#fff"></path><path d="M207,147.66l.18.81a.3.3,0,0,0,.23.23l.81.17-.81.17a.3.3,0,0,0-.23.23l-.18.82-.17-.82a.3.3,0,0,0-.23-.23l-.81-.17.81-.17a.3.3,0,0,0,.23-.23Z" style="fill:#fff"></path><path d="M89.62,278.36l.44,2.09a.76.76,0,0,0,.59.59l2.09.44-2.09.44a.76.76,0,0,0-.59.6l-.44,2.09-.44-2.09a.78.78,0,0,0-.6-.6l-2.09-.44,2.09-.44a.79.79,0,0,0,.6-.59Z" style="fill:#fff"></path><path d="M114.74,302.61l.42,2a.79.79,0,0,0,.57.57l2,.42-2,.42a.75.75,0,0,0-.57.57l-.42,2-.42-2a.73.73,0,0,0-.57-.57l-2-.42,2-.42a.75.75,0,0,0,.57-.57Z" style="fill:#fff"></path><path d="M99.12,322.4l.28,1.31a.48.48,0,0,0,.37.37l1.3.27-1.3.28a.47.47,0,0,0-.37.37l-.28,1.31L98.85,325a.48.48,0,0,0-.38-.37l-1.3-.28,1.3-.27a.5.5,0,0,0,.38-.37Z" style="fill:#fff"></path><path d="M71.52,324.74l.43,2a.74.74,0,0,0,.56.57l2,.42-2,.42a.73.73,0,0,0-.56.57l-.43,2-.42-2a.73.73,0,0,0-.57-.57l-2-.42,2-.42a.74.74,0,0,0,.57-.57Z" style="fill:#fff"></path><path d="M66.84,322.14l.23,1.13a.43.43,0,0,0,.33.32l1.13.24-1.13.24a.45.45,0,0,0-.33.32l-.23,1.14-.24-1.14a.43.43,0,0,0-.33-.32l-1.13-.24,1.13-.24a.42.42,0,0,0,.33-.32Z" style="fill:#fff"></path><path d="M79.2,318.11l.44,2.08a.78.78,0,0,0,.6.6l2.09.44-2.09.44a.78.78,0,0,0-.6.6l-.44,2.08-.44-2.08a.76.76,0,0,0-.59-.6l-2.09-.44,2.09-.44a.76.76,0,0,0,.59-.6Z" style="fill:#fff"></path><path d="M52.26,300.79l.34,1.65a.62.62,0,0,0,.48.48l1.65.34-1.65.35a.62.62,0,0,0-.48.47l-.34,1.66-.35-1.66a.63.63,0,0,0-.47-.47l-1.66-.35,1.66-.34a.62.62,0,0,0,.47-.48Z" style="fill:#fff"></path><path d="M172.67,122.31l.55,2.61a1,1,0,0,0,.75.75l2.61.55-2.61.55a1,1,0,0,0-.75.74l-.55,2.61-.55-2.61a1,1,0,0,0-.74-.74l-2.61-.55,2.61-.55a1,1,0,0,0,.74-.75Z" style="fill:#fff"></path></g></g></svg>